<svg width="64" height="64" viewBox="0 0 64 64" fill="none" xmlns="http://www.w3.org/2000/svg">
<g clip-path="url(#clip0_85_414)">
<path d="M0 0H64V64H0V0Z" fill="#000066"/>
<path fill-rule="evenodd" clip-rule="evenodd" d="M6.8625 46.075L11.9375 48L13.6125 42.825L15.275 48L20.3625 46.075L17.35 50.6125L22.025 53.3875L16.6125 53.85L17.3625 59.2375L13.6125 55.3L9.8625 59.2375L10.6125 53.8625L5.1875 53.3875L9.875 50.6125M50.5 59.55L48.125 59.75L48.4625 62.1L46.8375 60.3875L45.2125 62.1L45.5 59.75L43.15 59.55L45.1875 58.35L43.875 56.375L46.0875 57.2125L46.8125 54.9625L47.525 57.2125L49.75 56.375L48.45 58.35M50.475 24.55L48.125 24.75L48.45 27.1L46.825 25.3875L45.2 27.1L45.5 24.75L43.15 24.55L45.1875 23.35L43.875 21.375L46.0875 22.2125L46.8125 19.9625L47.525 22.2125L49.75 21.375L48.45 23.35M37.35 38.775L35 38.975L35.325 41.3125L33.7 39.6L32.075 41.3125L32.3875 38.975L30.0375 38.775L32.075 37.5625L30.7625 35.6L32.975 36.4375L33.7 34.1875L34.4125 36.4375L36.625 35.6L35.325 37.5625M62.125 35.275L59.775 35.475L60.1 37.8125L58.475 36.1L56.85 37.8125L57.1625 35.475L54.8125 35.275L56.85 34.0625L55.5375 32.1L57.75 32.9375L58.475 30.6875L59.2 32.9375L61.4 32.1L60.1 34.0625M52.075 44.375L50.7875 45.175L51.15 43.7L49.9875 42.725L51.4875 42.6125L52.075 41.2125L52.625 42.625L54.1375 42.75L52.9875 43.7125L53.35 45.1875" fill="white"/>
<path d="M0 0H32V32H0V0Z" fill="#000066"/>
<path d="M32 0V4L20.125 16L32 27.6875V32H27.8125L15.875 20.25L4.25 32H0V27.75L11.625 16.0625L0 4.625V0H3.875L15.875 11.75L27.5 0H32Z" fill="white"/>
<path d="M11.5 20.25L12.1875 22.375L2.625 32H0V31.8125L11.5 20.25ZM19.25 19.5L22.625 20L32 29.1875V32L19.25 19.5ZM32 0L20 12.25L19.75 9.5L29.125 0H32ZM0 0.0625L12.0625 11.875L8.375 11.375L0 3.0625V0.0625Z" fill="#C8102E"/>
<path d="M11 0V32H21V0H11ZM0 11V21H32V11H0Z" fill="white"/>
<path d="M0 13V19H32V13H0ZM13 0V32H19V0H13Z" fill="#C8102E"/>
</g>
<defs>
<clipPath id="clip0_85_414">
<rect width="64" height="64" rx="32" fill="white"/>
</clipPath>
</defs>
</svg>
