<svg width="65" height="65" viewBox="0 0 65 65" fill="none" xmlns="http://www.w3.org/2000/svg">
<g clip-path="url(#clip0_85_313)">
<path d="M0.5 0.5H64.5V21.8375H0.5V0.5Z" fill="#FF9933"/>
<path d="M0.5 21.8375H64.5V43.1625H0.5V21.8375Z" fill="white"/>
<path d="M0.5 43.1625H64.5V64.5H0.5V43.1625Z" fill="#128807"/>
<path d="M32.5001 41.0333C37.2129 41.0333 41.0334 37.2128 41.0334 32.5C41.0334 27.7872 37.2129 23.9667 32.5001 23.9667C27.7873 23.9667 23.9668 27.7872 23.9668 32.5C23.9668 37.2128 27.7873 41.0333 32.5001 41.0333Z" fill="#000088"/>
<path d="M32.4999 39.9666C36.6236 39.9666 39.9665 36.6237 39.9665 32.5C39.9665 28.3763 36.6236 25.0333 32.4999 25.0333C28.3761 25.0333 25.0332 28.3763 25.0332 32.5C25.0332 36.6237 28.3761 39.9666 32.4999 39.9666Z" fill="white"/>
<path d="M32.5002 33.9933C33.3249 33.9933 33.9935 33.3247 33.9935 32.5C33.9935 31.6752 33.3249 31.0067 32.5002 31.0067C31.6754 31.0067 31.0068 31.6752 31.0068 32.5C31.0068 33.3247 31.6754 33.9933 32.5002 33.9933Z" fill="#000088"/>
<path d="M39.8522 33.8581C40.0625 33.8858 40.2554 33.7378 40.2831 33.5275C40.3108 33.3172 40.1628 33.1243 39.9525 33.0967C39.7422 33.069 39.5493 33.217 39.5217 33.4273C39.494 33.6375 39.642 33.8304 39.8522 33.8581Z" fill="#000088"/>
<path d="M32.4997 39.9667L32.7557 35.4867L32.4997 33.3533L32.2437 35.4867L32.4997 39.9667Z" fill="#000088"/>
<path d="M39.2498 35.7148C39.4458 35.796 39.6704 35.7029 39.7516 35.507C39.8327 35.311 39.7397 35.0864 39.5437 35.0053C39.3478 34.9241 39.1232 35.0171 39.042 35.2131C38.9609 35.409 39.0539 35.6336 39.2498 35.7148Z" fill="#000088"/>
<path d="M30.5669 39.7122L31.9737 35.4512L32.2785 33.3243L31.4791 35.3186L30.5669 39.7122Z" fill="#000088"/>
<path d="M38.1882 37.3524C38.3564 37.4815 38.5975 37.4498 38.7266 37.2815C38.8557 37.1133 38.824 36.8722 38.6557 36.7431C38.4875 36.614 38.2464 36.6458 38.1173 36.814C37.9882 36.9823 38.0199 37.2233 38.1882 37.3524Z" fill="#000088"/>
<path d="M28.7666 38.9663L31.2283 35.2145L32.0733 33.239L30.7849 34.9585L28.7666 38.9663Z" fill="#000088"/>
<path d="M36.7387 38.6594C36.8678 38.8276 37.1089 38.8593 37.2771 38.7302C37.4454 38.6011 37.4771 38.3601 37.348 38.1918C37.2189 38.0236 36.9779 37.9918 36.8096 38.1209C36.6414 38.25 36.6096 38.4911 36.7387 38.6594Z" fill="#000088"/>
<path d="M27.2205 37.7797L30.5694 34.7929L31.8968 33.1034L30.2073 34.4309L27.2205 37.7797Z" fill="#000088"/>
<path d="M34.9999 39.5465C35.0811 39.7425 35.3057 39.8355 35.5016 39.7543C35.6976 39.6732 35.7906 39.4486 35.7095 39.2526C35.6283 39.0567 35.4037 38.9636 35.2077 39.0448C35.0118 39.126 34.9188 39.3506 34.9999 39.5465Z" fill="#000088"/>
<path d="M26.0335 36.2333L30.0413 34.215L31.7608 32.9267L29.7853 33.7716L26.0335 36.2333Z" fill="#000088"/>
<path d="M33.0909 39.9535C33.1186 40.1637 33.3115 40.3117 33.5218 40.2841C33.732 40.2564 33.88 40.0635 33.8524 39.8532C33.8247 39.643 33.6318 39.4949 33.4215 39.5226C33.2113 39.5503 33.0633 39.7432 33.0909 39.9535Z" fill="#000088"/>
<path d="M25.2876 34.4325L29.6813 33.5203L31.6756 32.7208L29.5487 33.0257L25.2876 34.4325Z" fill="#000088"/>
<path d="M31.1416 39.8526C31.1139 40.0628 31.2619 40.2557 31.4722 40.2834C31.6824 40.3111 31.8753 40.1631 31.903 39.9528C31.9307 39.7425 31.7827 39.5496 31.5724 39.522C31.3621 39.4943 31.1693 39.6423 31.1416 39.8526Z" fill="#000088"/>
<path d="M25.0332 32.5L29.5132 32.756L31.6465 32.5L29.5132 32.244L25.0332 32.5Z" fill="#000088"/>
<path d="M29.2851 39.2505C29.204 39.4464 29.297 39.671 29.4929 39.7522C29.6889 39.8334 29.9135 39.7403 29.9947 39.5444C30.0758 39.3484 29.9828 39.1238 29.7868 39.0427C29.5909 38.9615 29.3663 39.0545 29.2851 39.2505Z" fill="#000088"/>
<path d="M25.2875 30.5675L29.5485 31.9743L31.6754 32.2791L29.6811 31.4797L25.2875 30.5675Z" fill="#000088"/>
<path d="M27.6477 38.1884C27.5186 38.3567 27.5503 38.5977 27.7185 38.7268C27.8868 38.856 28.1279 38.8242 28.257 38.656C28.3861 38.4877 28.3543 38.2467 28.1861 38.1176C28.0178 37.9884 27.7768 38.0202 27.6477 38.1884Z" fill="#000088"/>
<path d="M26.0339 28.7667L29.7856 31.2284L31.7612 32.0734L30.0416 30.785L26.0339 28.7667Z" fill="#000088"/>
<path d="M26.3411 36.7387C26.1729 36.8678 26.1411 37.1088 26.2702 37.2771C26.3993 37.4453 26.6404 37.4771 26.8086 37.348C26.9769 37.2189 27.0086 36.9778 26.8795 36.8095C26.7504 36.6413 26.5094 36.6096 26.3411 36.7387Z" fill="#000088"/>
<path d="M27.2208 27.2203L30.2076 30.5691L31.8971 31.8966L30.5696 30.2071L27.2208 27.2203Z" fill="#000088"/>
<path d="M25.4539 35.0001C25.2579 35.0813 25.1649 35.3059 25.2461 35.5018C25.3272 35.6978 25.5518 35.7908 25.7478 35.7097C25.9437 35.6285 26.0367 35.4039 25.9556 35.2079C25.8744 35.012 25.6498 34.919 25.4539 35.0001Z" fill="#000088"/>
<path d="M28.767 26.0337L30.7853 30.0415L32.0737 31.761L31.2287 29.7855L28.767 26.0337Z" fill="#000088"/>
<path d="M25.0469 33.0912C24.8366 33.1188 24.6886 33.3117 24.7163 33.522C24.744 33.7323 24.9369 33.8803 25.1471 33.8526C25.3574 33.8249 25.5054 33.632 25.4777 33.4217C25.45 33.2115 25.2571 33.0635 25.0469 33.0912Z" fill="#000088"/>
<path d="M30.5674 25.2878L31.4797 29.6814L32.2791 31.6758L31.9742 29.5489L30.5674 25.2878Z" fill="#000088"/>
<path d="M25.1478 31.1419C24.9375 31.1143 24.7446 31.2623 24.7169 31.4725C24.6892 31.6828 24.8372 31.8757 25.0475 31.9034C25.2578 31.9311 25.4507 31.783 25.4783 31.5728C25.506 31.3625 25.358 31.1696 25.1478 31.1419Z" fill="#000088"/>
<path d="M32.5003 25.0334L32.2443 29.5134L32.5003 31.6467L32.7563 29.5134L32.5003 25.0334Z" fill="#000088"/>
<path d="M25.7502 29.2852C25.5542 29.2041 25.3296 29.2971 25.2484 29.4931C25.1673 29.689 25.2603 29.9136 25.4563 29.9948C25.6522 30.0759 25.8768 29.9829 25.958 29.787C26.0391 29.591 25.9461 29.3664 25.7502 29.2852Z" fill="#000088"/>
<path d="M34.4331 25.2878L33.0263 29.5489L32.7215 31.6758L33.5209 29.6814L34.4331 25.2878Z" fill="#000088"/>
<path d="M26.8118 27.6476C26.6436 27.5185 26.4025 27.5502 26.2734 27.7185C26.1443 27.8867 26.176 28.1278 26.3443 28.2569C26.5125 28.386 26.7536 28.3543 26.8827 28.186C27.0118 28.0178 26.9801 27.7767 26.8118 27.6476Z" fill="#000088"/>
<path d="M36.2334 26.0337L33.7717 29.7855L32.9267 31.761L34.2151 30.0415L36.2334 26.0337Z" fill="#000088"/>
<path d="M28.2613 26.3407C28.1322 26.1724 27.8911 26.1407 27.7229 26.2698C27.5546 26.3989 27.5229 26.64 27.652 26.8082C27.7811 26.9765 28.0221 27.0082 28.1904 26.8791C28.3586 26.75 28.3904 26.5089 28.2613 26.3407Z" fill="#000088"/>
<path d="M37.7795 27.2203L34.4306 30.2071L33.1032 31.8966L34.7927 30.5691L37.7795 27.2203Z" fill="#000088"/>
<path d="M30.0001 25.4535C29.9189 25.2576 29.6943 25.1645 29.4984 25.2457C29.3024 25.3268 29.2094 25.5515 29.2905 25.7474C29.3717 25.9433 29.5963 26.0364 29.7923 25.9552C29.9882 25.8741 30.0812 25.6494 30.0001 25.4535Z" fill="#000088"/>
<path d="M38.9665 28.7667L34.9587 30.785L33.2392 32.0734L35.2147 31.2284L38.9665 28.7667Z" fill="#000088"/>
<path d="M31.9091 25.0466C31.8814 24.8363 31.6885 24.6883 31.4782 24.716C31.268 24.7437 31.12 24.9365 31.1476 25.1468C31.1753 25.3571 31.3682 25.5051 31.5785 25.4774C31.7887 25.4497 31.9367 25.2568 31.9091 25.0466Z" fill="#000088"/>
<path d="M39.7124 30.5675L35.3187 31.4798L33.3244 32.2792L35.4513 31.9743L39.7124 30.5675Z" fill="#000088"/>
<path d="M33.8584 25.1475C33.8861 24.9372 33.7381 24.7443 33.5278 24.7166C33.3176 24.689 33.1247 24.837 33.097 25.0472C33.0693 25.2575 33.2173 25.4504 33.4276 25.4781C33.6379 25.5058 33.8307 25.3577 33.8584 25.1475Z" fill="#000088"/>
<path d="M39.9668 32.5L35.4868 32.244L33.3535 32.5L35.4868 32.756L39.9668 32.5Z" fill="#000088"/>
<path d="M35.7149 25.7496C35.796 25.5536 35.703 25.329 35.5071 25.2478C35.3111 25.1667 35.0865 25.2597 35.0053 25.4557C34.9242 25.6516 35.0172 25.8762 35.2132 25.9574C35.4091 26.0385 35.6337 25.9455 35.7149 25.7496Z" fill="#000088"/>
<path d="M39.7125 34.4325L35.4515 33.0258L33.3246 32.7209L35.3189 33.5203L39.7125 34.4325Z" fill="#000088"/>
<path d="M37.3528 26.8116C37.4819 26.6433 37.4502 26.4023 37.2819 26.2732C37.1137 26.144 36.8726 26.1758 36.7435 26.344C36.6144 26.5123 36.6462 26.7533 36.8144 26.8824C36.9827 27.0116 37.2237 26.9798 37.3528 26.8116Z" fill="#000088"/>
<path d="M38.9666 36.2333L35.2148 33.7716L33.2393 32.9266L34.9588 34.215L38.9666 36.2333Z" fill="#000088"/>
<path d="M38.6594 28.2613C38.8276 28.1322 38.8594 27.8911 38.7303 27.7229C38.6012 27.5546 38.3601 27.5229 38.1919 27.652C38.0236 27.7811 37.9919 28.0222 38.121 28.1904C38.2501 28.3587 38.4911 28.3904 38.6594 28.2613Z" fill="#000088"/>
<path d="M37.7797 37.7797L34.7929 34.4308L33.1034 33.1034L34.4309 34.7929L37.7797 37.7797Z" fill="#000088"/>
<path d="M39.5466 29.9999C39.7426 29.9187 39.8356 29.6941 39.7544 29.4982C39.6733 29.3022 39.4487 29.2092 39.2527 29.2903C39.0568 29.3715 38.9637 29.5961 39.0449 29.7921C39.1261 29.988 39.3507 30.081 39.5466 29.9999Z" fill="#000088"/>
<path d="M36.2334 38.9663L34.2151 34.9585L32.9268 33.239L33.7717 35.2145L36.2334 38.9663Z" fill="#000088"/>
<path d="M39.9536 31.9088C40.1639 31.8812 40.3119 31.6883 40.2842 31.478C40.2565 31.2677 40.0636 31.1197 39.8534 31.1474C39.6431 31.1751 39.4951 31.368 39.5228 31.5783C39.5505 31.7885 39.7434 31.9365 39.9536 31.9088Z" fill="#000088"/>
<path d="M34.4331 39.7122L33.5208 35.3186L32.7214 33.3242L33.0263 35.4511L34.4331 39.7122Z" fill="#000088"/>
</g>
<defs>
<clipPath id="clip0_85_313">
<rect x="0.5" y="0.5" width="64" height="64" rx="32" fill="white"/>
</clipPath>
</defs>
</svg>
