<svg width="36" height="36" viewBox="0 0 36 36" fill="none" xmlns="http://www.w3.org/2000/svg">
<rect width="36" height="36" rx="18" fill="#FFEFE3"/>
<path d="M25.7143 16.4463H10.2857C9.57576 16.4463 9 17.0782 9 17.8575V19.2686C9 20.0479 9.57576 20.6798 10.2857 20.6798H25.7143C26.4242 20.6798 27 20.0479 27 19.2686V17.8575C27 17.0782 26.4242 16.4463 25.7143 16.4463Z" fill="#F4770B"/>
<path d="M15.8833 10.8487L15.8833 26.2773C15.8833 26.9872 16.5152 27.563 17.2945 27.563L18.7056 27.563C19.4849 27.563 20.1168 26.9872 20.1168 26.2773L20.1168 10.8487C20.1168 10.1387 19.4849 9.56299 18.7056 9.56299L17.2945 9.56299C16.5152 9.56299 15.8833 10.1387 15.8833 10.8487Z" fill="#F4770B"/>
</svg>
