<svg width="64" height="64" viewBox="0 0 64 64" fill="none" xmlns="http://www.w3.org/2000/svg">
<g clip-path="url(#clip0_85_306)">
<path fill-rule="evenodd" clip-rule="evenodd" d="M0 0H121.601V4.92312H0V0ZM0 9.84625H121.601V14.7694H0V9.84625ZM0 19.6925H121.601V24.6156H0V19.6925ZM0 29.5387H121.601V34.4619H0V29.5387ZM0 39.385H121.601V44.3081H0V39.385ZM0 49.2313H121.601V54.1544H0V49.2313ZM0 59.0775H121.601V64.0006H0V59.0775Z" fill="#BD3D44"/>
<path fill-rule="evenodd" clip-rule="evenodd" d="M0 4.92313H121.601V9.84625H0V4.92313ZM0 14.7694H121.601V19.6925H0V14.7694ZM0 24.6156H121.601V29.5388H0V24.6156ZM0 34.4619H121.601V39.385H0V34.4619ZM0 44.3081H121.601V49.2313H0V44.3081ZM0 54.1544H121.601V59.0775H0V54.1544Z" fill="white"/>
<path fill-rule="evenodd" clip-rule="evenodd" d="M0 0H48.6405V34.4619H0V0Z" fill="#192F5D"/>
<path fill-rule="evenodd" clip-rule="evenodd" d="M4.03696 1.47699L4.52921 2.85536H5.90771L4.77533 3.69236L5.21846 5.02161L4.03696 4.18461L2.95383 5.02161L3.39696 3.69236L2.21533 2.85536H3.69246L4.03696 1.47699ZM12.1601 1.47699L12.6032 2.85536H14.0308L12.8493 3.69236L13.3416 5.02161L12.1601 4.18461L10.9786 5.02161L11.4708 3.69236L10.2893 2.85536H11.717L12.1601 1.47699ZM20.2832 1.47699L20.7263 2.85536H22.154L20.9725 3.69236L21.4648 5.02161L20.2832 4.18461L19.1017 5.02161L19.594 3.69236L18.4125 2.85536H19.8402L20.2832 1.47699ZM28.3572 1.47699L28.8495 2.85536H30.228L29.0956 3.69236L29.5387 5.02161L28.3572 4.18461L27.2248 5.02161L27.668 3.69236L26.4863 2.85536H27.9633L28.3572 1.47699ZM36.4803 1.47699L36.9233 2.85536H38.3511L37.1696 3.69236L37.6618 5.02161L36.4311 4.18461L35.2987 5.02161L35.7418 3.69236L34.5603 2.85536H35.988L36.4803 1.47699ZM44.6035 1.47699L45.0466 2.85536H46.4742L45.2927 3.69236L45.785 5.02161L44.6035 4.18461L43.422 5.02161L43.9142 3.69236L42.7327 2.85536H44.1603L44.6035 1.47699ZM8.12308 4.92311L8.56621 6.30161H9.99396L8.81233 7.13849L9.30471 8.46774L8.12308 7.63087L6.94158 8.46774L7.43383 7.13849L6.25233 6.30161H7.68008L8.12308 4.92311ZM16.1971 4.92311L16.6893 6.30161H18.0678L16.9355 7.13849L17.3786 8.46774L16.1971 7.63087L15.0647 8.46774L15.5078 7.13849L14.3262 6.30161H15.8032L16.1971 4.92311ZM24.3202 4.92311L24.7633 6.30161H26.191L25.0095 7.13849L25.5017 8.46774L24.3202 7.63087L23.1386 8.46774L23.631 7.13849L22.4495 6.30161H23.8771L24.3202 4.92311ZM32.4433 4.92311L32.8865 6.30161H34.3141L33.1326 7.13849L33.625 8.46774L32.4433 7.63087L31.2618 8.46774L31.7541 7.13849L30.5726 6.30161H32.0003L32.4433 4.92311ZM40.5173 4.92311L41.0096 6.30161H42.3388L41.2065 7.13849L41.6496 8.46774L40.4681 7.63087L39.3357 8.46774L39.7788 7.13849L38.5972 6.30161H40.0742L40.5173 4.92311ZM4.08608 8.36936L4.47996 9.74774H5.95696L4.77533 10.5847L5.21846 11.914L4.03696 11.077L2.95383 11.914L3.39696 10.5847L2.21533 9.74774H3.69246L4.08608 8.36936ZM12.1601 8.36936L12.6032 9.74774H14.0308L12.8986 10.5847L13.3416 11.914L12.1601 11.077L11.0277 11.914L11.4708 10.5847L10.2893 9.74774H11.717L12.1601 8.36936ZM20.2832 8.36936L20.7263 9.74774H22.154L20.9725 10.5847L21.4648 11.914L20.2832 11.077L19.1017 11.914L19.594 10.5847L18.4125 9.74774H19.8402L20.2832 8.36936ZM28.3572 8.36936L28.8495 9.74774H30.228L29.0956 10.5847L29.5387 11.914L28.3572 11.077L27.2248 11.914L27.668 10.5847L26.4863 9.74774H27.9633L28.3572 8.36936ZM36.4803 8.36936L36.9233 9.74774H38.3511L37.2188 10.5847L37.6618 11.914L36.4803 11.077L35.348 11.914L35.7911 10.5847L34.6096 9.74774H36.0372L36.4803 8.36936ZM44.6035 8.36936L45.0466 9.74774H46.4742L45.2927 10.5847L45.785 11.914L44.6035 11.077L43.422 11.914L43.9142 10.5847L42.7327 9.74774H44.1603L44.6035 8.36936ZM8.12308 11.8154L8.56621 13.1939H9.99396L8.81233 14.0307L9.30471 15.36L8.12308 14.5231L6.94158 15.36L7.43383 14.0307L6.25233 13.1939H7.68008L8.12308 11.8154ZM16.1971 11.8154L16.6893 13.1939H18.0678L16.9355 14.0307L17.3786 15.36L16.1971 14.5231L15.0647 15.36L15.5078 14.0307L14.3262 13.1939H15.8032L16.1971 11.8154ZM24.3202 11.8154L24.7633 13.1939H26.191L25.0587 14.0307L25.5017 15.36L24.3202 14.5231L23.1878 15.36L23.631 14.0307L22.4495 13.1939H23.8771L24.3202 11.8154ZM32.4433 11.8154L32.8865 13.1939H34.3141L33.1326 14.0307L33.625 15.3601L32.4433 14.5232L31.2618 15.3601L31.7541 14.0309L30.5726 13.194H32.0003L32.4433 11.8154ZM40.5173 11.8154L41.0096 13.1939H42.3388L41.2065 14.0307L41.6496 15.36L40.4681 14.5231L39.3357 15.36L39.7788 14.0307L38.5972 13.1939H40.0742L40.5173 11.8154ZM4.08608 15.2616L4.47996 16.64H5.95696L4.77533 17.477L5.21846 18.8062L4.03696 17.9692L2.95383 18.8062L3.39696 17.477L2.21533 16.64H3.69246L4.08608 15.2616ZM12.1601 15.2616L12.6032 16.64H14.0308L12.8986 17.477L13.3416 18.8062L12.1601 17.9692L11.0277 18.8062L11.4708 17.477L10.2893 16.64H11.717L12.1601 15.2616ZM20.2832 15.2616L20.7263 16.64H22.154L20.9725 17.477L21.4648 18.8062L20.2832 17.9692L19.1017 18.8062L19.594 17.477L18.4125 16.64H19.8402L20.2832 15.2616ZM28.3572 15.2616L28.8495 16.64H30.228L29.0956 17.477L29.5387 18.8062L28.3572 17.9692L27.2248 18.8062L27.668 17.477L26.4863 16.64H27.9633L28.3572 15.2616ZM36.4803 15.2616L36.9233 16.64H38.3511L37.2188 17.477L37.6618 18.8062L36.4803 17.9692L35.348 18.8062L35.7911 17.477L34.6096 16.64H36.0372L36.4803 15.2616ZM44.6035 15.2616L45.0466 16.64H46.4742L45.2927 17.477L45.785 18.8062L44.6035 17.9692L43.422 18.8062L43.9142 17.477L42.7327 16.64H44.1603L44.6035 15.2616ZM8.12308 18.7077L8.56621 20.0862H9.99396L8.81233 20.9231L9.30471 22.2524L8.12308 21.4155L6.94158 22.2524L7.43383 20.9231L6.25233 20.0862H7.68008L8.12308 18.7077ZM16.1971 18.7077L16.6893 20.0862H18.0678L16.9355 20.9231L17.3786 22.2524L16.1971 21.4155L15.0647 22.2524L15.5078 20.9231L14.3262 20.0862H15.8032L16.1971 18.7077ZM24.3202 18.7077L24.7633 20.0862H26.191L25.0587 20.9231L25.5017 22.2524L24.3202 21.4155L23.1878 22.2524L23.631 20.9231L22.4495 20.0862H23.8771L24.3202 18.7077ZM32.4433 18.7077L32.8865 20.0862H34.3141L33.1326 20.9231L33.625 22.2525L32.4433 21.4156L31.2618 22.2525L31.7541 20.9232L30.5726 20.0864H32.0003L32.4433 18.7077ZM40.5173 18.7077L41.0096 20.0862H42.3388L41.2065 20.9231L41.6496 22.2524L40.4681 21.4155L39.3357 22.2524L39.7788 20.9231L38.5972 20.0862H40.0742L40.5173 18.7077ZM4.08608 22.154L4.47996 23.5324H5.95696L4.77533 24.3694L5.21846 25.6986L4.03696 24.8616L2.95383 25.6986L3.39696 24.3694L2.21533 23.5324H3.69246L4.08608 22.154ZM12.1601 22.154L12.6032 23.5324H14.0308L12.8986 24.3694L13.3416 25.6986L12.1601 24.8616L11.0277 25.6986L11.4708 24.3694L10.2893 23.5324H11.717L12.1601 22.154ZM20.2832 22.154L20.7263 23.5324H22.154L20.9725 24.3694L21.4648 25.6986L20.2832 24.8616L19.1017 25.6986L19.594 24.3694L18.4125 23.5324H19.8402L20.2832 22.154ZM28.3572 22.154L28.8495 23.5324H30.228L29.0956 24.3694L29.5387 25.6986L28.3572 24.8616L27.2248 25.6986L27.668 24.3694L26.4863 23.5324H27.9633L28.3572 22.154ZM36.4803 22.154L36.9233 23.5324H38.3511L37.2188 24.3694L37.6618 25.6986L36.4803 24.8616L35.348 25.6986L35.7911 24.3694L34.6096 23.5324H36.0372L36.4803 22.154ZM44.6035 22.154L45.0466 23.5324H46.4742L45.2927 24.3694L45.785 25.6986L44.6035 24.8616L43.422 25.6986L43.9142 24.3694L42.7327 23.5324H44.1603L44.6035 22.154ZM8.12308 25.6002L8.56621 26.9787H9.99396L8.81233 27.8156L9.30471 29.1449L8.12308 28.308L6.94158 29.1449L7.43383 27.8156L6.25233 26.9787H7.68008L8.12308 25.6002ZM16.1971 25.6002L16.6893 26.9787H18.0678L16.9355 27.8156L17.3786 29.1449L16.1971 28.308L15.0647 29.1449L15.5078 27.8156L14.3262 26.9787H15.8032L16.1971 25.6002ZM24.3202 25.6002L24.7633 26.9787H26.191L25.0587 27.8156L25.5017 29.1449L24.3202 28.308L23.1878 29.1449L23.631 27.8156L22.4495 26.9787H23.8771L24.3202 25.6002ZM32.4433 25.6002L32.8865 26.9787H34.3141L33.1326 27.8156L33.625 29.145L32.4433 28.3081L31.2618 29.145L31.7541 27.8157L30.5726 26.9789H32.0003L32.4433 25.6002ZM40.5173 25.6002L41.0096 26.9787H42.3388L41.2065 27.8156L41.6496 29.1449L40.4681 28.308L39.3357 29.1449L39.7788 27.8156L38.5972 26.9787H40.0742L40.5173 25.6002ZM4.08608 29.0465L4.47996 30.4249H5.95696L4.77533 31.2619L5.21846 32.5911L4.03696 31.7541L2.95383 32.5911L3.39696 31.2619L2.21533 30.4249H3.69246L4.08608 29.0465ZM12.1601 29.0465L12.6032 30.4249H14.0308L12.8986 31.2619L13.3416 32.5911L12.1601 31.7541L11.0277 32.5911L11.4708 31.2619L10.2893 30.4249H11.717L12.1601 29.0465ZM20.2832 29.0465L20.7263 30.4249H22.154L20.9725 31.2619L21.4648 32.5911L20.2832 31.7541L19.1017 32.5911L19.594 31.2619L18.4125 30.4249H19.8402L20.2832 29.0465ZM28.3572 29.0465L28.8495 30.4249H30.228L29.0956 31.2619L29.5387 32.5911L28.3572 31.7541L27.2248 32.5911L27.668 31.2619L26.4863 30.4249H27.9633L28.3572 29.0465ZM36.4803 29.0465L36.9233 30.4249H38.3511L37.2188 31.2619L37.6618 32.5911L36.4803 31.7541L35.348 32.5911L35.7911 31.2619L34.6096 30.4249H36.0372L36.4803 29.0465ZM44.6035 29.0465L45.0466 30.4249H46.4742L45.2927 31.2619L45.785 32.5911L44.6035 31.7541L43.422 32.5911L43.9142 31.2619L42.7327 30.4249H44.1603L44.6035 29.0465Z" fill="white"/>
</g>
<defs>
<clipPath id="clip0_85_306">
<rect width="64" height="64" rx="32" fill="white"/>
</clipPath>
</defs>
</svg>
