<svg xmlns="http://www.w3.org/2000/svg" style="display: none;">

  <symbol id="pin" width="20" height="20" viewBox="0 0 20 20" fill="currentColor">
            <g clip-path="url(#clip0_1_1111)">
                <path
                    d="M10.181 10.0124C9.31016 10.0124 8.59766 9.29987 8.59766 8.42904C8.59766 7.5582 9.31016 6.8457 10.181 6.8457C11.0518 6.8457 11.7643 7.5582 11.7643 8.42904C11.7643 9.29987 11.0518 10.0124 10.181 10.0124ZM14.931 8.58737C14.931 5.71362 12.8331 3.67904 10.181 3.67904C7.52891 3.67904 5.43099 5.71362 5.43099 8.58737C5.43099 10.4399 6.97474 12.894 10.181 15.8232C13.3872 12.894 14.931 10.4399 14.931 8.58737ZM10.181 2.0957C13.506 2.0957 16.5143 4.64487 16.5143 8.58737C16.5143 11.2157 14.4006 14.327 10.181 17.929C5.96141 14.327 3.84766 11.2157 3.84766 8.58737C3.84766 4.64487 6.85599 2.0957 10.181 2.0957Z"
                     fill="currentColor" />
            </g>
            <defs>
                <clipPath id="clip0_1_1111">
                    <rect width="19" height="19" fill="white" transform="translate(0.679688 0.511719)" />
                </clipPath>
            </defs>
        </symbol>

  <symbol id="search" width="20" height="20" viewBox="0 0 20 20" fill="currentColor">
    <path d="M12.928 11.948H12.287L12.0598 11.7289C12.855 10.804 13.3337 9.60325 13.3337 8.29702C13.3337 5.38438 10.9726 3.02344 8.05989 3.02344C5.14716 3.02344 2.78613 5.38438 2.78613 8.29702C2.78613 11.2097 5.14716 13.5706 8.05989 13.5706C9.36616 13.5706 10.567 13.0919 11.4919 12.2968L11.711 12.524V13.1649L15.7677 17.2134L16.9766 16.0046L12.928 11.948ZM8.05989 11.948C6.03964 11.948 4.40883 10.3172 4.40883 8.29702C4.40883 6.27683 6.03964 4.64608 8.05989 4.64608C10.0801 4.64608 11.711 6.27683 11.711 8.29702C11.711 10.3172 10.0801 11.948 8.05989 11.948Z" fill="currentColor" />
</symbol>

<symbol id="circle" width="7" height="7" viewBox="0 0 7 7" fill="currentColor">
    <circle cx="3.5" cy="3.5" r="3.5" fill="currentColor" />
</symbol>

<symbol id="plus" width="36" height="36" viewBox="0 0 36 36" fill="none" xmlns="http://www.w3.org/2000/svg">
<rect width="36" height="36" rx="18" fill="#FFEFE3"/>
<path d="M25.7143 16.4463H10.2857C9.57576 16.4463 9 17.0782 9 17.8575V19.2686C9 20.0479 9.57576 20.6798 10.2857 20.6798H25.7143C26.4242 20.6798 27 20.0479 27 19.2686V17.8575C27 17.0782 26.4242 16.4463 25.7143 16.4463Z" fill="#F4770B"/>
<path d="M15.8833 10.8487L15.8833 26.2773C15.8833 26.9872 16.5152 27.563 17.2945 27.563L18.7056 27.563C19.4849 27.563 20.1168 26.9872 20.1168 26.2773L20.1168 10.8487C20.1168 10.1387 19.4849 9.56299 18.7056 9.56299L17.2945 9.56299C16.5152 9.56299 15.8833 10.1387 15.8833 10.8487Z" fill="#F4770B"/>
</symbol>


<svg id="minus" width="36" height="36" viewBox="0 0 36 36" fill="none">
<rect width="36" height="36" rx="18" fill="#FFEFE3"/>
<path d="M25.7143 16.4462H10.2857C9.57576 16.4462 9 17.0782 9 17.8574V19.2686C9 20.0478 9.57576 20.6797 10.2857 20.6797H25.7143C26.4242 20.6797 27 20.0478 27 19.2686V17.8574C27 17.0782 26.4242 16.4462 25.7143 16.4462Z" fill="#F4770B"/>
</svg>

</svg>

