
<svg xmlns="http://www.w3.org/2000/svg" xmlns:xlink="http://www.w3.org/1999/xlink" width="0" height="0" version="1.1"
  xml:space="preserve" style="display: none;">
  <defs>
  
<symbol id="calculator" width="14" height="16" viewBox="0 0 14 16" fill="currentColor">
<path d="M12.5 0H1.5C0.7 0 0 0.7 0 1.5V14.5C0 15.3 0.7 16 1.5 16H12.5C13.3 16 14 15.3 14 14.5V1.5C14 0.7 13.3 0 12.5 0ZM4 13.6C4 13.8 3.8 14 3.6 14H2.4C2.2 14 2 13.8 2 13.6V12.4C2 12.2 2.2 12 2.4 12H3.6C3.8 12 4 12.2 4 12.4V13.6ZM4 9.6C4 9.8 3.8 10 3.6 10H2.4C2.2 10 2 9.8 2 9.6V8.4C2 8.2 2.2 8 2.4 8H3.6C3.8 8 4 8.2 4 8.4V9.6ZM8 13.6C8 13.8 7.8 14 7.6 14H6.4C6.2 14 6 13.8 6 13.6V12.4C6 12.2 6.2 12 6.4 12H7.6C7.8 12 8 12.2 8 12.4V13.6ZM8 9.6C8 9.8 7.8 10 7.6 10H6.4C6.2 10 6 9.8 6 9.6V8.4C6 8.2 6.2 8 6.4 8H7.6C7.8 8 8 8.2 8 8.4V9.6ZM12 13.6C12 13.8 11.8 14 11.6 14H10.4C10.2 14 10 13.8 10 13.6V8.4C10 8.2 10.2 8 10.4 8H11.6C11.8 8 12 8.2 12 8.4V13.6ZM12 5.6C12 5.8 11.8 6 11.6 6H2.4C2.2 6 2 5.8 2 5.6V2.4C2 2.2 2.2 2 2.4 2H11.6C11.8 2 12 2.2 12 2.4V5.6Z" fill="#F4770B"/>
</symbol>


<symbol id="minus" width="14" height="4" viewBox="0 0 14 4" fill="currentColor">
<path d="M13 0.446228H1C0.447812 0.446228 0 0.937738 0 1.54381V2.64139C0 3.24746 0.447812 3.73897 1 3.73897H13C13.5522 3.73897 14 3.24746 14 2.64139V1.54381C14 0.937738 13.5522 0.446228 13 0.446228Z" fill="#F4770B"/>
</symbol>



<symbol id="equal" width="14" height="9" viewBox="0 0 14 9" fill="currentColor">
<path d="M13 0H1C0.447812 0 0 0.49151 0 1.09758V2.19516C0 2.80123 0.447812 3.29274 1 3.29274H13C13.5522 3.29274 14 2.80123 14 2.19516V1.09758C14 0.49151 13.5522 0 13 0Z" fill="#F4770B"/>
<path d="M13 5H1C0.447812 5 0 5.49151 0 6.09758V7.19516C0 7.80123 0.447812 8.29274 1 8.29274H13C13.5522 8.29274 14 7.80123 14 7.19516V6.09758C14 5.49151 13.5522 5 13 5Z" fill="#F4770B"/>
</symbol>



<symbol id="multiply" width="14" height="16" viewBox="0 0 14 16" fill="currentColor">
<path d="M0.792414 11.9789L10.3011 0.921453C10.7387 0.412638 11.4695 0.389468 11.933 0.869713L12.7726 1.73943C13.2361 2.21967 13.2573 3.02178 12.8197 3.53059L3.31101 14.588C2.87346 15.0968 2.14266 15.12 1.67909 14.6398L0.839554 13.7701C0.375975 13.2898 0.354865 12.4877 0.792414 11.9789Z" fill="#F4770B"/>
<path d="M13.2076 11.9789L3.69889 0.921453C3.26134 0.412638 2.53054 0.389468 2.06696 0.869713L1.22743 1.73943C0.763851 2.21967 0.742741 3.02178 1.18029 3.53059L10.689 14.588C11.1265 15.0968 11.8573 15.12 12.3209 14.6398L13.1604 13.7701C13.624 13.2898 13.6451 12.4877 13.2076 11.9789Z" fill="#F4770B"/>
</symbol>

    <symbol id="global" width="36" height="36" viewBox="0 0 36 36" fill="currentColor">
        <path d="M34.6058 24.8398C34.6163 24.8184 34.6257 24.7964 34.6331 24.7739C36.766 19.8511 36.3849 13.816 33.6147 9.20316C35.0936 7.43519 33.1726 4.90334 31.0718 5.88296C30.7022 5.50535 30.3157 5.14474 29.9133 4.80225C30.7018 2.65899 28.0704 0.90079 26.4317 2.50212C21.6686 0.0969601 15.7443 0.12742 11.0075 2.58351C9.3225 0.797805 6.4926 2.71245 7.51281 4.95293C6.92757 5.46436 6.37725 6.01443 5.86555 6.59942C5.42526 7.10337 6.2229 7.79409 6.66016 7.29365C7.13616 6.74954 7.64773 6.23759 8.1915 5.76119C9.24139 6.51845 10.7637 6.13268 11.3397 4.97678C13.2405 5.52392 15.0557 6.30918 16.7471 7.31701C16.6055 7.82764 16.6633 8.39793 16.9063 8.86931C15.5116 10.0744 14.2587 11.4344 13.1718 12.923C12.1668 12.6193 11.059 13.1276 10.622 14.0794C8.39612 14.092 6.1773 14.3305 3.99958 14.7911C3.80663 14.4319 3.51559 14.135 3.16037 13.9349C3.57012 12.3358 4.22257 10.809 5.09499 9.40758C5.44362 8.84694 4.5636 8.26413 4.19901 8.85024C3.2715 10.3402 2.57742 11.9633 2.14086 13.6632C-0.386629 13.7061 -0.810949 17.2026 1.59519 17.8753C1.55974 22.8516 3.71131 27.6898 7.44225 30.9856C6.66396 33.088 9.19067 34.8221 10.8581 33.3392C15.7244 35.9269 21.8746 35.9272 26.7412 33.3401C28.4371 35.0174 31.1534 33.1435 30.1982 30.9508C32.121 29.2419 33.6148 27.1518 34.6058 24.8398ZM33.941 23.6599C32.4783 22.2068 30.883 20.8936 29.176 19.7373C29.4183 18.9782 29.2077 18.1241 28.6418 17.5638C30.0771 15.1769 31.2041 12.6178 31.996 9.94755C32.2603 9.94847 32.5143 9.89972 32.7483 9.8115C35.1779 13.9149 35.6223 19.2056 33.941 23.6599ZM9.66318 29.624C9.21916 25.2749 9.9983 20.9361 11.9267 17.0152C13.1246 17.389 14.4195 16.6012 14.6521 15.3715C18.29 15.8199 21.7936 16.888 25.0817 18.5513C24.9236 19.166 25.0545 19.8437 25.4312 20.3551C21.7249 25.0505 16.8327 28.5837 11.2335 30.6087C10.8942 30.0715 10.3236 29.6957 9.66318 29.624ZM26.0695 19.0859C26.0695 18.488 26.5523 18.0017 27.1458 18.0017C28.5737 18.0611 28.5733 20.1109 27.1458 20.1701C26.5523 20.1701 26.0695 19.6838 26.0695 19.0859ZM33.077 7.80823C33.077 8.40609 32.5942 8.89245 32.0007 8.89245C30.5727 8.83301 30.5731 6.78323 32.0007 6.724C32.5942 6.724 33.077 7.21037 33.077 7.80823ZM30.2656 6.56791C29.5364 7.59248 29.8748 9.07359 30.9741 9.68256C30.207 12.2583 29.1176 14.7267 27.7318 17.0294C27.4422 16.9462 27.1207 16.9255 26.8229 16.9711C25.375 13.8791 23.2681 11.094 20.6943 8.86945C20.9375 8.39779 20.9954 7.82849 20.8536 7.31715C22.4857 6.3453 24.232 5.57968 26.0526 5.03784C26.6591 6.2088 28.2861 6.53942 29.2962 5.66285C29.6315 5.95127 29.9548 6.25321 30.2656 6.56791ZM17.724 7.8899C17.724 7.29204 18.2068 6.80567 18.8003 6.80567C20.2283 6.86511 20.2278 8.91482 18.8003 8.97405C18.2068 8.97405 17.724 8.48769 17.724 7.8899ZM27.9288 2.9391C28.5223 2.9391 29.0052 3.42546 29.0052 4.02332C28.946 5.46166 26.9114 5.46131 26.8524 4.02332C26.8524 3.42546 27.3353 2.9391 27.9288 2.9391ZM9.43231 5.10748C8.83881 5.10748 8.35596 4.62111 8.35596 4.02325C8.41519 2.58484 10.4497 2.58534 10.5087 4.02325C10.5087 4.62111 10.0258 5.10748 9.43231 5.10748ZM11.5619 3.94236C11.5565 3.79852 11.5368 3.65558 11.5028 3.51572C15.9192 1.23183 21.4366 1.19202 25.8871 3.4095C25.8286 3.60517 25.7984 3.8082 25.7975 4.01242C23.8826 4.5784 22.0457 5.38092 20.3293 6.4014C19.5057 5.54946 18.0953 5.54917 17.2715 6.40133C15.4859 5.33926 13.5692 4.5137 11.5619 3.94236ZM17.6048 9.66012C18.3183 10.147 19.2822 10.1471 19.9957 9.66019C22.453 11.7819 24.466 14.4377 25.8525 17.3869C25.7586 17.4592 25.6708 17.5391 25.59 17.6258C22.1235 15.8675 18.4242 14.7496 14.5817 14.2998C14.479 13.9893 14.3066 13.7065 14.0777 13.473C15.107 12.0741 16.2901 10.7951 17.6048 9.66012ZM12.5584 13.8875C13.1519 13.8875 13.6348 14.3739 13.6348 14.9717C13.5755 16.4101 11.541 16.4097 11.482 14.9717C11.4821 14.3739 11.9649 13.8875 12.5584 13.8875ZM1.04524 15.8021C1.04524 15.2043 1.52809 14.7179 2.12159 14.7179C3.54944 14.7774 3.54902 16.8271 2.12159 16.8863C1.52816 16.8864 1.04524 16.4 1.04524 15.8021ZM2.6503 17.8748C2.6503 17.8748 4.25282 17.5254 4.25282 15.8161C4.25282 15.8161 8.3649 15.1588 10.4338 15.1357C10.4714 15.6313 10.6807 16.0983 11.0257 16.4561C8.96965 20.5925 8.14036 25.1784 8.61772 29.7739C8.41361 29.8591 8.224 29.9756 8.05566 30.1191C4.61362 27.0356 2.6503 21.8692 2.6503 17.8748ZM9.43231 32.8347C8.83881 32.8347 8.35596 32.3484 8.35596 31.7505C8.35596 31.1526 8.83881 30.6663 9.43231 30.6663C10.0179 30.6663 10.5087 31.1735 10.5087 31.7505C10.5087 32.3484 10.0258 32.8347 9.43231 32.8347ZM18.8003 34.233C16.2397 34.233 13.7076 33.6197 11.4444 32.4554C11.5363 32.1921 11.5768 31.8922 11.559 31.6128C17.351 29.525 22.4124 25.8764 26.2466 21.025C26.5626 21.1727 26.9101 21.2405 27.2585 21.2223C27.4931 22.0925 27.677 22.9757 27.8093 23.8672C27.9098 24.5466 28.954 24.3948 28.8532 23.7129C28.7128 22.7662 28.5167 21.8286 28.266 20.905C28.3918 20.8266 28.5091 20.7353 28.6161 20.6326C30.3775 21.8287 32.0153 23.1974 33.5051 24.7185C32.5733 26.7787 31.2211 28.6214 29.5353 30.1283C29.3652 30.0007 29.177 29.8992 28.9768 29.8274C29.0806 28.8475 29.1253 27.8621 29.1105 26.8768C29.0998 26.1876 28.0447 26.2037 28.0555 26.8931C28.0697 27.8403 28.0266 28.7875 27.9263 29.7294C26.682 29.9273 25.8682 31.2176 26.211 32.4268C23.9337 33.6096 21.3819 34.233 18.8003 34.233ZM28.261 32.9264C27.6675 32.9264 27.1847 32.4401 27.1847 31.8422C27.2439 30.4038 29.2784 30.4043 29.3374 31.8422C29.3374 32.4401 28.8546 32.9264 28.261 32.9264Z" fill="currentColor"/>
    </symbol>

<symbol id="fast" width="36" height="36" viewBox="0 0 36 36" fill="currentColor">
<path d="M27.7469 13.4079H19.7175L21.9514 0L8.25317 19.4067H16.4043L14.192 36L27.7469 13.4079ZM10.5687 18.207L19.9052 4.9796L18.3006 14.6077H25.6281L16.1482 30.4079L17.7745 18.207H10.5687Z" fill="currentColor"/>
</symbol>

<symbol id="safe" width="36" height="36" viewBox="0 0 36 36" fill="currentColor">
<g clip-path="url(#clip0_5_396)">
<path d="M27.5296 12.2205C27.2371 11.928 26.7615 11.928 26.469 12.2205L16.5001 22.1895L11.0295 16.7205C10.737 16.428 10.2615 16.428 9.96901 16.7205C9.67651 17.013 9.67651 17.4885 9.96901 17.781L15.969 23.781C16.1101 23.9212 16.301 24 16.5 24C16.692 24 16.884 23.9265 17.0295 23.781L27.5295 13.281C27.8221 12.9884 27.8221 12.513 27.5296 12.2205Z" fill="currentColor"/>
<path d="M33.2145 4.53148L18.2145 0.0314837C18.0741 -0.0104946 17.9244 -0.0104946 17.784 0.0314837L2.78402 4.53148C2.46748 4.62598 2.25 4.91848 2.25 5.25001V21.75C2.25 28.383 12.363 34.2825 17.778 35.967C17.85 35.9895 17.925 36 18 36C18.075 36 18.15 35.9895 18.222 35.967C23.637 34.281 33.75 28.383 33.75 21.75V5.25001C33.75 4.91848 33.5325 4.62746 33.2145 4.53148ZM32.25 21.75C32.25 27.0164 23.9055 32.5545 18 34.4639C12.0945 32.5545 3.74998 27.0164 3.74998 21.75V5.80801L18 1.53301L32.25 5.80801V21.75Z" fill="currentColor"/>
</g>
<defs>
<clipPath id="clip0_5_396">
<rect width="36" height="36" fill="white"/>
</clipPath>
</defs>
</symbol>

<symbol id="mobile" width="36" height="36" viewBox="0 0 36 36" fill="currentColor">
<path d="M26.027 35.0271H9.97292C9.45683 35.0271 8.96187 34.8221 8.59693 34.4571C8.232 34.0922 8.02698 33.5972 8.02698 33.0811V2.91897C8.02698 2.40287 8.232 1.90791 8.59693 1.54298C8.96187 1.17804 9.45683 0.973022 9.97292 0.973022H26.027C26.5431 0.973022 27.038 1.17804 27.403 1.54298C27.7679 1.90791 27.9729 2.40287 27.9729 2.91897V33.0811C27.9729 33.5972 27.7679 34.0922 27.403 34.4571C27.038 34.8221 26.5431 35.0271 26.027 35.0271ZM9.97292 1.946C9.71488 1.946 9.4674 2.0485 9.28493 2.23097C9.10246 2.41344 8.99995 2.66092 8.99995 2.91897V33.0811C8.99995 33.3392 9.10246 33.5867 9.28493 33.7691C9.4674 33.9516 9.71488 34.0541 9.97292 34.0541H26.027C26.285 34.0541 26.5325 33.9516 26.715 33.7691C26.8974 33.5867 27 33.3392 27 33.0811V2.91897C27 2.66092 26.8974 2.41344 26.715 2.23097C26.5325 2.0485 26.285 1.946 26.027 1.946H9.97292Z" fill="currentColor"/>
<path d="M27.4864 6.32435H8.51346C8.38444 6.32435 8.2607 6.2731 8.16947 6.18187C8.07823 6.09063 8.02698 5.96689 8.02698 5.83787C8.02698 5.70884 8.07823 5.5851 8.16947 5.49387C8.2607 5.40264 8.38444 5.35138 8.51346 5.35138H27.4864C27.6155 5.35138 27.7392 5.40264 27.8304 5.49387C27.9217 5.5851 27.9729 5.70884 27.9729 5.83787C27.9729 5.96689 27.9217 6.09063 27.8304 6.18187C27.7392 6.2731 27.6155 6.32435 27.4864 6.32435ZM27.4864 28.7027H8.51346C8.38444 28.7027 8.2607 28.6515 8.16947 28.5602C8.07823 28.469 8.02698 28.3453 8.02698 28.2162C8.02698 28.0872 8.07823 27.9635 8.16947 27.8722C8.2607 27.781 8.38444 27.7298 8.51346 27.7298H27.4864C27.6155 27.7298 27.7392 27.781 27.8304 27.8722C27.9217 27.9635 27.9729 28.0872 27.9729 28.2162C27.9729 28.3453 27.9217 28.469 27.8304 28.5602C27.7392 28.6515 27.6155 28.7027 27.4864 28.7027ZM18 33.1726C17.6451 33.1726 17.2982 33.0673 17.0032 32.8702C16.7081 32.6731 16.4782 32.3928 16.3424 32.065C16.2066 31.7372 16.171 31.3764 16.2403 31.0284C16.3095 30.6803 16.4804 30.3607 16.7313 30.1097C16.9822 29.8588 17.3019 29.6879 17.6499 29.6187C17.998 29.5495 18.3587 29.585 18.6865 29.7208C19.0144 29.8566 19.2946 30.0866 19.4917 30.3816C19.6889 30.6767 19.7941 31.0236 19.7941 31.3784C19.7936 31.8541 19.6044 32.3101 19.268 32.6465C18.9317 32.9829 18.4756 33.1721 18 33.1726ZM18 30.5577C17.8375 30.5577 17.6787 30.6059 17.5437 30.6961C17.4086 30.7864 17.3034 30.9147 17.2412 31.0648C17.1791 31.2148 17.1629 31.38 17.1946 31.5393C17.2263 31.6986 17.3046 31.8449 17.4195 31.9597C17.5343 32.0746 17.6807 32.1527 17.84 32.1844C17.9994 32.216 18.1645 32.1997 18.3145 32.1374C18.4646 32.0752 18.5928 31.9699 18.683 31.8348C18.7732 31.6997 18.8212 31.5408 18.8211 31.3784C18.8209 31.1607 18.7343 30.9521 18.5803 30.7982C18.4263 30.6443 18.2176 30.5578 18 30.5577ZM19.9459 4.25679H16.054C15.925 4.25679 15.8012 4.20553 15.71 4.1143C15.6188 4.02306 15.5675 3.89932 15.5675 3.7703C15.5675 3.64128 15.6188 3.51754 15.71 3.4263C15.8012 3.33507 15.925 3.28381 16.054 3.28381H19.9459C20.0749 3.28381 20.1987 3.33507 20.2899 3.4263C20.3811 3.51754 20.4324 3.64128 20.4324 3.7703C20.4324 3.89932 20.3811 4.02306 20.2899 4.1143C20.1987 4.20553 20.0749 4.25679 19.9459 4.25679Z" fill="currentColor"/>
</symbol>

<symbol id="register" width="33" height="34" viewBox="0 0 33 34" fill="currentColor">
<g clip-path="url(#clip0_5_444)">
<path d="M15.946 32.1932C16.1781 32.206 16.3965 32.3068 16.5563 32.4748C16.716 32.6428 16.8051 32.8653 16.8051 33.0966C16.8051 33.3279 16.716 33.5504 16.5563 33.7185C16.3965 33.8865 16.1781 33.9872 15.946 34H2.11352C1.55321 33.9993 1.01605 33.7775 0.619849 33.3833C0.223646 32.9891 0.000735805 32.4546 0 31.8972L0 2.10288C0.000735805 1.54539 0.223646 1.01094 0.619849 0.61674C1.01605 0.222535 1.55321 0.000748465 2.11352 1.63702e-05H27.3534C27.6318 -0.00107578 27.9077 0.0524903 28.1652 0.157646C28.4228 0.262802 28.6569 0.417481 28.8543 0.612822C29.0516 0.808164 29.2083 1.04033 29.3154 1.29602C29.4224 1.55171 29.4777 1.8259 29.4781 2.10288V17.0443C29.4787 17.1766 29.4703 17.3088 29.453 17.44H29.2695H29.1527H29.1277H29.1026H29.0804H29.0581H29.0331H29.0109H28.9858H28.9636H28.9413H28.9191H28.8941H28.8718H28.8496H28.8273H28.8023H28.78H28.7578H28.7356H28.7133H28.6188H28.5993H28.577H28.5548H28.5325H27.651V2.10288C27.6496 2.0248 27.6177 1.95032 27.5622 1.8951C27.5068 1.83989 27.4319 1.80824 27.3534 1.80682H2.11352C2.03464 1.80749 1.95902 1.83818 1.90217 1.89259C1.84796 1.94946 1.81719 2.02451 1.81596 2.10288V31.8944C1.81531 31.9333 1.8229 31.9718 1.83823 32.0076C1.85356 32.0433 1.8763 32.0755 1.90495 32.1019C1.96152 32.1571 2.0371 32.1887 2.1163 32.1904L15.946 32.1932ZM25.6932 32.2292L21.1352 33.7787L21.1714 28.729L25.7015 32.2292H25.6932ZM22.4506 27.0384L27.3673 20.3978C27.4253 20.3161 27.5093 20.2563 27.6057 20.2281C27.7022 20.2 27.8054 20.2052 27.8985 20.2429L31.9253 23.2422C31.9684 23.275 32.0041 23.3165 32.0299 23.364C32.0557 23.4116 32.0711 23.464 32.075 23.5179C32.079 23.5717 32.0714 23.6258 32.0528 23.6766C32.0341 23.7273 32.0049 23.7735 31.967 23.8122L26.9752 30.5414L22.4506 27.0384ZM8.10091 17.3874C8.00077 17.0877 7.98159 16.7671 8.04529 16.4577C8.17321 15.4754 8.42906 15.2928 9.34121 15.041C10.3646 14.7643 11.5215 14.7394 12.4003 14.1362C12.4786 14.0096 12.5473 13.8773 12.606 13.7406C12.7089 13.5054 12.8035 13.2508 12.8619 13.0765C12.6157 12.7741 12.3909 12.4552 12.1889 12.1219L11.5076 11.0428C11.2925 10.755 11.1599 10.4146 11.1238 10.0578C11.1191 9.93598 11.1429 9.81475 11.1933 9.70363C11.2428 9.59096 11.3239 9.49489 11.4269 9.42694C11.4764 9.39007 11.5319 9.36199 11.591 9.34393C11.5436 8.69944 11.5324 8.05281 11.5576 7.40708C11.5733 7.25841 11.6012 7.11127 11.6411 6.96714C11.8336 6.35927 12.2432 5.84256 12.7924 5.5145C13.0913 5.32625 13.4165 5.18268 13.7574 5.08839C13.9743 5.02752 13.571 4.33856 13.7963 4.31642C14.8781 4.20575 16.6273 5.188 17.3837 6.00148C17.7939 6.46028 18.0292 7.04786 18.0484 7.66164L18.0066 9.4214C18.0932 9.4447 18.1715 9.49144 18.2328 9.55641C18.2942 9.62139 18.3363 9.70205 18.3543 9.7894C18.3932 10.1094 18.3279 10.4333 18.1679 10.7136V10.7385L17.3893 12.0085C17.1273 12.481 16.8079 12.9196 16.4382 13.3145L16.5439 13.4639C16.6896 13.6937 16.8552 13.9103 17.0389 14.1113C17.0467 14.1168 17.0525 14.1245 17.0556 14.1335C17.7119 14.5928 19.0578 14.7975 20.0562 15.0576C20.8905 15.2762 21.1964 15.3343 21.3827 16.2419C21.4773 16.6901 21.4801 17.1826 21.3577 17.3846L8.10091 17.3874ZM7.41679 27.0855C7.18177 27.0726 6.96064 26.9706 6.79884 26.8006C6.63704 26.6305 6.54687 26.4052 6.54687 26.171C6.54687 25.9368 6.63704 25.7115 6.79884 25.5414C6.96064 25.3713 7.18177 25.2694 7.41679 25.2565H19.7447L19.7281 25.2814V25.2953V25.3091V25.7324V25.7684V25.7905V26.0091V26.0423H19.7086H19.6919H19.6752H19.6585H19.6418H19.6252H19.6085L19.589 26.0562H19.5723H19.5556L19.539 26.0728H19.525H19.5084L19.4917 26.0866H19.475L19.4583 26.1032H19.4444L19.4277 26.1198L19.411 26.1364L19.3943 26.153V26.1696V26.1862V26.2V26.2167L19.3777 26.2332V26.2499H19.3638V26.2665V26.2831L19.3498 26.2997V26.3163V26.3356V26.3522V26.3716V26.3882L19.3359 26.4048V26.4214V26.4408V26.4601V26.4795V26.4989V26.5182V26.5376L7.41679 27.0855ZM7.76997 22.0607C7.64651 22.0675 7.52295 22.0492 7.40684 22.0069C7.29074 21.9645 7.18453 21.8991 7.09471 21.8145C7.00489 21.73 6.93334 21.6281 6.88445 21.5151C6.83555 21.4021 6.81033 21.2804 6.81033 21.1573C6.81033 21.0343 6.83555 20.9126 6.88445 20.7996C6.93334 20.6866 7.00489 20.5847 7.09471 20.5001C7.18453 20.4155 7.29074 20.3501 7.40684 20.3078C7.52295 20.2654 7.64651 20.2471 7.76997 20.2539H21.074C21.1975 20.2471 21.3211 20.2654 21.4372 20.3078C21.5533 20.3501 21.6595 20.4155 21.7493 20.5001C21.8391 20.5847 21.9107 20.6866 21.9596 20.7996C22.0085 20.9126 22.0337 21.0343 22.0337 21.1573C22.0337 21.2804 22.0085 21.4021 21.9596 21.5151C21.9107 21.6281 21.8391 21.73 21.7493 21.8145C21.6595 21.8991 21.5533 21.9645 21.4372 22.0069C21.3211 22.0492 21.1975 22.0675 21.074 22.0607H7.76997Z" fill="currentColor"/>
</g>
<defs>
<clipPath id="clip0_5_444">
<rect width="32.0755" height="34" fill="white"/>
</clipPath>
</defs>
</symbol>


<symbol id="transfer" width="36" height="26" viewBox="0 0 36 26" fill="currentColor">
<g clip-path="url(#clip0_5_446)">
<path d="M21.8818 9.43004C21.8536 9.42958 21.8256 9.43479 21.7994 9.44535C21.7733 9.45591 21.7495 9.47161 21.7295 9.49152C21.7101 9.51173 21.6949 9.53561 21.6849 9.56175C21.6748 9.58789 21.6701 9.61577 21.6709 9.64376V14.7672C21.2581 14.6244 20.8093 14.6244 20.3965 14.7672V9.64376C20.398 9.24874 20.5555 8.8703 20.8348 8.5907C21.114 8.3111 21.4924 8.15296 21.8877 8.15065H34.5088C34.9041 8.15296 35.2825 8.3111 35.5617 8.5907C35.841 8.8703 35.9985 9.24874 36 9.64376V23.5268C35.9977 23.9213 35.8398 24.299 35.5607 24.5779C35.2815 24.8569 34.9036 25.0147 34.5088 25.017H22.9834C23.3174 24.7242 23.8154 24.2294 24.3164 23.7405H34.5146C34.5428 23.7409 34.5708 23.7356 34.597 23.725C34.6231 23.7144 34.6468 23.6987 34.6668 23.6788C34.6867 23.6589 34.7024 23.6351 34.713 23.609C34.7236 23.5829 34.7289 23.555 34.7285 23.5268V9.64376C34.7289 9.61559 34.7236 9.58762 34.713 9.56151C34.7024 9.5354 34.6867 9.51169 34.6668 9.49176C34.6468 9.47184 34.6231 9.45611 34.597 9.44551C34.5708 9.43491 34.5428 9.42965 34.5146 9.43004H21.8818ZM15.5742 21.372V19.2846C15.575 19.0845 15.6549 18.8928 15.7965 18.7513C15.938 18.6098 16.1299 18.53 16.3301 18.5292H20.3936V17.1972C20.3883 17.0945 20.4086 16.9921 20.4526 16.8991C20.4965 16.8062 20.5628 16.7255 20.6455 16.6643C21.0674 16.3715 21.4805 16.7668 21.7734 17.0303C22.5967 17.7827 24.2607 19.4866 24.7031 19.8584C24.7757 19.9157 24.8343 19.9886 24.8746 20.0718C24.9149 20.1549 24.9359 20.2461 24.9359 20.3385C24.9359 20.4309 24.9149 20.5221 24.8746 20.6053C24.8343 20.6884 24.7757 20.7614 24.7031 20.8187C24.2549 21.2022 22.5029 22.9998 21.7002 23.7141C21.4072 23.963 21.0381 24.2675 20.6514 24.0069C20.5689 23.9456 20.5027 23.8649 20.4588 23.7719C20.4148 23.679 20.3945 23.5767 20.3994 23.4741V22.1391H16.3301C16.1285 22.136 15.9363 22.0538 15.7949 21.9103C15.6535 21.7668 15.5742 21.5734 15.5742 21.372ZM11.9883 2.30994L15.9346 6.00467H11.9883V2.30994ZM4.0166 9.66133C4.07053 9.59997 4.1367 9.55056 4.21086 9.51627C4.28503 9.48199 4.36556 9.46358 4.44727 9.46224H11.3643C11.4457 9.46154 11.5264 9.47844 11.6007 9.5118C11.6751 9.54515 11.7413 9.59416 11.7949 9.65547C11.9043 9.77909 11.9646 9.9384 11.9646 10.1034C11.9646 10.2684 11.9043 10.4277 11.7949 10.5513C11.741 10.6127 11.6748 10.6621 11.6007 10.6964C11.5265 10.7307 11.446 10.7491 11.3643 10.7504H4.44727C4.36528 10.7499 4.28433 10.7321 4.20964 10.6983C4.13495 10.6645 4.06819 10.6155 4.01367 10.5543C3.90577 10.43 3.84646 10.2709 3.84668 10.1063C3.84608 9.94206 3.90664 9.78344 4.0166 9.66133ZM4.0166 17.1503C4.07079 17.0895 4.13708 17.0406 4.21123 17.0068C4.28539 16.9731 4.36578 16.9551 4.44727 16.9542H13.3506C13.4292 16.9552 13.5069 16.9721 13.5788 17.0038C13.6508 17.0355 13.7157 17.0813 13.7695 17.1386C13.8797 17.2618 13.9402 17.4214 13.9395 17.5865C13.9422 17.7515 13.8825 17.9115 13.7725 18.0345C13.7179 18.0957 13.6512 18.1447 13.5765 18.1785C13.5018 18.2123 13.4209 18.2301 13.3389 18.2306H4.44727C4.36834 18.2303 4.29028 18.2141 4.21779 18.1829C4.14529 18.1517 4.07985 18.1062 4.02539 18.0491V18.0345C3.91662 17.9106 3.85664 17.7514 3.85664 17.5865C3.85664 17.4217 3.91662 17.2625 4.02539 17.1386L4.0166 17.1503ZM13.5176 13.2126C13.5993 13.2139 13.6798 13.2323 13.754 13.2666C13.8281 13.3009 13.8943 13.3503 13.9482 13.4117C14.057 13.5356 14.117 13.6948 14.117 13.8596C14.117 14.0244 14.057 14.1836 13.9482 14.3075C13.8937 14.3687 13.827 14.4178 13.7523 14.4516C13.6776 14.4854 13.5966 14.5031 13.5146 14.5037H4.43262C4.35063 14.5031 4.26968 14.4854 4.19499 14.4516C4.1203 14.4178 4.05354 14.3687 3.99902 14.3075C3.89025 14.1836 3.83027 14.0244 3.83027 13.8596C3.83027 13.6948 3.89025 13.5356 3.99902 13.4117C4.05264 13.3539 4.11738 13.3075 4.18937 13.2753C4.26136 13.2431 4.33911 13.2257 4.41797 13.2243L13.5176 13.2126ZM4.0166 5.92269C4.07053 5.86133 4.1367 5.81192 4.21086 5.77764C4.28503 5.74335 4.36556 5.72495 4.44727 5.72361H7.19531C7.27396 5.72468 7.35158 5.74156 7.42356 5.77325C7.49553 5.80494 7.56039 5.85078 7.61426 5.90805C7.72514 6.03076 7.7858 6.19066 7.78418 6.35599C7.78439 6.51457 7.72833 6.66809 7.62598 6.78928V6.80392C7.57179 6.86475 7.5055 6.91361 7.43134 6.94738C7.35719 6.98116 7.2768 6.9991 7.19531 7.00007H4.44727C4.36834 6.99977 4.29028 6.98354 4.21779 6.95235C4.14529 6.92116 4.07985 6.87565 4.02539 6.81856C3.91682 6.6935 3.85747 6.53326 3.8584 6.3677C3.85799 6.20487 3.91741 6.04756 4.02539 5.92562L4.0166 5.92269ZM18.1318 6.61655C18.1318 6.30914 17.71 5.9549 17.5107 5.76167L11.8359 0.243009C11.7755 0.166718 11.6984 0.105189 11.6106 0.0630873C11.5228 0.0209854 11.4265 -0.000584828 11.3291 1.20581e-05H1.17188C0.861074 1.20581e-05 0.563003 0.123392 0.343234 0.34301C0.123465 0.562628 0 0.860494 0 1.17108L0 21.3954C0 21.706 0.123465 22.0039 0.343234 22.2235C0.563003 22.4431 0.861074 22.5665 1.17188 22.5665H13.708V21.249H1.32129V1.31454H10.667V6.66339C10.6685 6.83786 10.739 7.00465 10.863 7.12747C10.987 7.25029 11.1545 7.3192 11.3291 7.31919H16.8135V16.5589H18.1318V6.60484V6.61655ZM24.7441 14.2431C24.5825 14.2355 24.4304 14.1646 24.3207 14.0457C24.211 13.9268 24.1526 13.7694 24.1582 13.6078C24.1543 13.5275 24.1664 13.4472 24.1938 13.3716C24.2212 13.296 24.2635 13.2266 24.318 13.1675C24.3725 13.1084 24.4383 13.0607 24.5115 13.0272C24.5846 12.9937 24.6637 12.9751 24.7441 12.9725H31.6406C31.7211 12.9751 31.8001 12.9937 31.8733 13.0272C31.9465 13.0607 32.0122 13.1084 32.0668 13.1675C32.1213 13.2266 32.1635 13.296 32.191 13.3716C32.2184 13.4472 32.2305 13.5275 32.2266 13.6078C32.2321 13.7694 32.1738 13.9268 32.0641 14.0457C31.9544 14.1646 31.8023 14.2355 31.6406 14.2431H24.7441ZM26.6602 18.3829C26.4988 18.3745 26.3471 18.3033 26.2376 18.1846C26.128 18.0659 26.0694 17.909 26.0742 17.7476C26.0703 17.6672 26.0824 17.5869 26.1098 17.5113C26.1373 17.4358 26.1795 17.3664 26.234 17.3072C26.2885 17.2481 26.3543 17.2004 26.4275 17.1669C26.5006 17.1335 26.5797 17.1149 26.6602 17.1122H31.6406C31.7211 17.1149 31.8001 17.1335 31.8733 17.1669C31.9465 17.2004 32.0122 17.2481 32.0668 17.3072C32.1213 17.3664 32.1635 17.4358 32.191 17.5113C32.2184 17.5869 32.2305 17.6672 32.2266 17.7476C32.2321 17.9092 32.1738 18.0665 32.0641 18.1854C31.9544 18.3043 31.8023 18.3753 31.6406 18.3829H26.6602Z" fill="currentColor"/>
</g>
<defs>
<clipPath id="clip0_5_446">
<rect width="36" height="25.0169" fill="white"/>
</clipPath>
</defs>
</symbol>


<symbol id="payment" width="36" height="32" viewBox="0 0 36 32" fill="currentColor">
<g clip-path="url(#clip0_5_448)">
<path d="M19.1895 1.7788C18.186 1.94059 17.2062 2.22317 16.2715 2.62029C15.4914 2.95325 14.7432 3.35574 14.0361 3.82283C13.3479 4.28317 12.7062 4.80878 12.1201 5.39226C11.7504 5.75951 11.4031 6.14844 11.0801 6.55695H14.8623C16.1228 4.81038 17.574 3.2079 19.1895 1.7788ZM1.50293 15.5047H20.8008C21.1991 15.5055 21.581 15.6631 21.8627 15.943C22.1443 16.223 22.3029 16.6025 22.3037 16.9984V29.6411C22.3014 30.0366 22.1423 30.4152 21.861 30.6948C21.5796 30.9745 21.1987 31.1326 20.8008 31.1349H1.50293C1.10457 31.1341 0.72274 30.9765 0.441053 30.6965C0.159367 30.4166 0.000774276 30.0371 0 29.6411L0 16.9984C0.00230667 16.603 0.161391 16.2244 0.442747 15.9447C0.724102 15.6651 1.10504 15.507 1.50293 15.5047ZM3.84668 27.734C3.78296 27.7443 3.71773 27.7408 3.65551 27.7236C3.5933 27.7065 3.53558 27.6761 3.48637 27.6345C3.43716 27.593 3.39763 27.5413 3.37052 27.483C3.34341 27.4248 3.32937 27.3614 3.32937 27.2972C3.32937 27.233 3.34341 27.1696 3.37052 27.1114C3.39763 27.0531 3.43716 27.0014 3.48637 26.9599C3.53558 26.9184 3.5933 26.8879 3.65551 26.8708C3.71773 26.8536 3.78296 26.8501 3.84668 26.8604H8.39356C8.49779 26.8774 8.59256 26.9307 8.66094 27.0107C8.72932 27.0907 8.76687 27.1922 8.76687 27.2972C8.76687 27.4022 8.72932 27.5037 8.66094 27.5837C8.59256 27.6637 8.49779 27.717 8.39356 27.734H3.84668ZM3.84668 25.6375C3.74245 25.6205 3.64768 25.5673 3.57929 25.4873C3.51091 25.4073 3.47337 25.3057 3.47337 25.2008C3.47337 25.0958 3.51091 24.9942 3.57929 24.9142C3.64768 24.8342 3.74245 24.781 3.84668 24.764H10.5938C10.6575 24.7536 10.7227 24.7571 10.7849 24.7743C10.8471 24.7915 10.9048 24.8219 10.9541 24.8635C11.0033 24.905 11.0428 24.9567 11.0699 25.0149C11.097 25.0732 11.1111 25.1366 11.1111 25.2008C11.1111 25.2649 11.097 25.3283 11.0699 25.3866C11.0428 25.4448 11.0033 25.4965 10.9541 25.5381C10.9048 25.5796 10.8471 25.61 10.7849 25.6272C10.7227 25.6444 10.6575 25.6479 10.5938 25.6375H3.84668ZM14.7539 24.237C15.0688 24.2367 15.3794 24.3098 15.6607 24.4504C15.9421 24.591 16.1864 24.7951 16.374 25.0464C16.6272 24.7079 16.9813 24.4573 17.386 24.3302C17.7907 24.2031 18.2254 24.206 18.6283 24.3386C19.0312 24.4711 19.3818 24.7264 19.6304 25.0684C19.8789 25.4103 20.0127 25.8214 20.0127 26.2432C20.0127 26.665 19.8789 27.076 19.6304 27.418C19.3818 27.7599 19.0312 28.0152 18.6283 28.1478C18.2254 28.2803 17.7907 28.2832 17.386 28.1561C16.9813 28.029 16.6272 27.7784 16.374 27.4399C16.1686 27.7146 15.8958 27.9326 15.5816 28.0729C15.2674 28.2133 14.9224 28.2714 14.5792 28.2418C14.2361 28.2122 13.9062 28.0958 13.6211 27.9037C13.3361 27.7115 13.1052 27.4501 12.9505 27.1443C12.7957 26.8384 12.7224 26.4983 12.7373 26.1563C12.7522 25.8143 12.8549 25.4817 13.0357 25.1903C13.2164 24.8989 13.4692 24.6583 13.77 24.4915C14.0707 24.3246 14.4095 24.237 14.7539 24.237ZM1.03711 18.5911H21.252V16.9984C21.2513 16.8759 21.2018 16.7586 21.1143 16.6723C21.0307 16.5893 20.9188 16.5404 20.8008 16.5354H1.50293C1.44154 16.5347 1.38061 16.5461 1.32374 16.5691C1.26687 16.5921 1.2152 16.6262 1.17179 16.6693C1.12838 16.7125 1.0941 16.7638 1.07096 16.8203C1.04783 16.8768 1.03632 16.9374 1.03711 16.9984V18.5911ZM21.252 22.554H1.03711V29.6411C1.03654 29.7642 1.08499 29.8825 1.17188 29.9702C1.21468 30.0135 1.26574 30.0479 1.32208 30.0714C1.37842 30.0949 1.4389 30.107 1.5 30.107H20.8008C20.9244 30.1053 21.0424 30.055 21.1289 29.9673C21.1737 29.9255 21.2093 29.8749 21.2335 29.8188C21.2577 29.7627 21.27 29.7022 21.2695 29.6411V22.554H21.252ZM32.6631 20.9642H32.6953C32.9429 20.524 33.1668 20.071 33.3662 19.6073L33.3838 19.5695C33.7124 18.7999 33.9608 17.9989 34.125 17.1789C34.2455 16.5844 34.3229 15.9821 34.3564 15.3766H30.7295C30.6086 17.3413 30.0374 19.2525 29.0596 20.9642H32.6631ZM31.6172 22.5744H28.0518C27.172 23.8087 26.1763 24.9571 25.0781 26.0044V23.6983C25.4199 23.3217 25.7412 22.9451 26.042 22.5686H25.0781V20.9642H27.1904C28.2998 19.2939 28.9614 17.3695 29.1123 15.3737H25.0781V14.5584C25.0769 14.2822 25.017 14.0093 24.9023 13.7577H29.0772C28.8818 11.9194 28.1816 10.0549 26.9766 8.16422H22.1572V12.5609H20.5371V8.15258H15.7178C14.8276 9.49534 14.183 10.9838 13.8135 12.5493H12.1641C12.4774 11.0031 13.0425 9.51799 13.8369 8.15258H10.002C9.75288 8.59145 9.52794 9.04344 9.32813 9.50653L9.31055 9.54438C8.98186 10.3169 8.7335 11.1209 8.56934 11.9436C8.52832 12.1416 8.49317 12.3455 8.46387 12.5493H6.82617C6.87012 12.2377 6.91992 11.932 6.98145 11.6292C7.16971 10.6989 7.4514 9.78981 7.82227 8.91545L7.84277 8.87177C8.21631 8.0099 8.66942 7.18429 9.19629 6.40554C9.71798 5.63314 10.3146 4.91341 10.9775 4.25668C11.6377 3.59802 12.362 3.00599 13.1396 2.48926C13.9278 1.96388 14.7634 1.51256 15.6357 1.14113C17.4418 0.377366 19.3859 -0.0110651 21.3486 -0.000269267C22.3325 0.000537215 23.3138 0.0980698 24.2783 0.290904C25.2149 0.475739 26.1299 0.755767 27.0088 1.12657L27.0527 1.14404C27.9247 1.5161 28.7603 1.9674 29.5488 2.49217C31.1086 3.5292 32.45 4.85844 33.4981 6.40554C34.0284 7.18828 34.4854 8.01771 34.8633 8.88342C35.2422 9.77269 35.527 10.6988 35.7129 11.6467C36.0957 13.576 36.0957 15.5611 35.7129 17.4905C35.5241 18.4188 35.2394 19.3253 34.8633 20.1955L34.8457 20.2392C34.4731 21.1022 34.022 21.9297 33.4981 22.7112C32.9781 23.4841 32.3825 24.2039 31.7197 24.8601C31.0589 25.519 30.3348 26.1119 29.5576 26.6304C28.7694 27.1548 27.9338 27.6052 27.0615 27.9756C26.4183 28.2497 25.7553 28.4755 25.0781 28.6512V26.9915C25.5352 26.8513 25.9842 26.6861 26.4229 26.4965C27.2036 26.1648 27.9519 25.7622 28.6582 25.2939C29.3477 24.8353 29.9895 24.3095 30.5742 23.7245C30.9447 23.3579 31.292 22.969 31.6143 22.5598L31.6172 22.5744ZM30.6973 13.7635H34.3564C34.323 13.1579 34.2457 12.5556 34.125 11.9611C33.9577 11.1252 33.7044 10.3085 33.3691 9.524C33.1687 9.05552 32.9438 8.59776 32.6953 8.15258H28.8574C29.8687 9.86369 30.4963 11.7716 30.6973 13.746V13.7635ZM16.8691 6.55404H20.5371V2.73093C19.2028 3.89462 17.9753 5.17404 16.8691 6.55404ZM22.1426 6.55404H25.8252C24.7191 5.17404 23.4916 3.89462 22.1572 2.73093V6.55404H22.1426ZM27.8174 6.55404H31.6025C31.2796 6.14553 30.9323 5.7566 30.5625 5.38934C29.977 4.80518 29.3353 4.27952 28.6465 3.81992C27.9438 3.35319 27.1995 2.95163 26.4229 2.62029L26.3818 2.60282C25.6058 2.27482 24.7978 2.02699 23.9707 1.86324C23.8184 1.83121 23.6777 1.805 23.5049 1.7788C25.1201 3.20699 26.5713 4.80849 27.832 6.55404H27.8174Z" fill="currentColor"/>
</g>
<defs>
<clipPath id="clip0_5_448">
<rect width="36" height="31.1351" fill="white"/>
</clipPath>
</defs>
</symbol>


<symbol id="done" width="36" height="36" viewBox="0 0 36 36" fill="currentColor">
<g clip-path="url(#clip0_5_441)">
<path fill-rule="evenodd" clip-rule="evenodd" d="M27.4426 20.299C27.8513 20.5561 28.3113 21.067 28.8793 21.3899C29.678 21.8449 31.158 21.2171 31.9153 22.3399C32.3566 22.9929 32.378 23.5065 32.41 24.0133C32.446 24.5594 32.5413 25.063 33.1033 25.8024C34.0326 27.0274 34.226 27.8426 33.7466 28.6923C33.42 29.2716 32.7333 29.5931 32.5733 29.9598C32.236 30.7404 32.6093 31.3284 32.1466 32.2385C31.8246 32.8703 31.3286 33.2855 30.668 33.4974C30.1106 33.6768 29.5506 33.4177 29.1046 33.6051C28.32 33.9332 27.742 34.6966 27.1173 34.8899C26.6446 35.0354 26.1493 35.038 25.6766 34.8899C25.0533 34.6966 24.474 33.9346 23.6893 33.6051C23.242 33.4177 22.6833 33.6768 22.126 33.4974C21.4653 33.2855 20.9693 32.8703 20.6473 32.2385C20.1833 31.3284 20.5586 30.7404 20.2193 29.9598C20.0593 29.5931 19.3726 29.2716 19.046 28.6916C18.5673 27.8426 18.7613 27.0274 19.6893 25.8024C20.2513 25.0623 20.3466 24.5594 20.3826 24.0133C20.416 23.5065 20.436 22.9929 20.878 22.3399C21.6346 21.2171 23.1153 21.8449 23.9133 21.3899C24.4813 21.067 24.9406 20.5561 25.35 20.299C26.0506 19.8572 26.7426 19.8559 27.4426 20.299ZM20.934 4.07257L26.3573 9.75332L20.8426 9.84434L20.934 4.07257ZM9.77133 26.8806H16.6613V25.8489H9.77133V26.8806ZM9.77133 22.9185H18.4966C18.5566 22.5996 18.658 22.2615 18.84 21.8868H9.77133V22.9185ZM9.77133 18.9564H23.8266C23.978 18.8342 24.1293 18.7199 24.2893 18.6196C24.362 18.5737 24.436 18.5286 24.5113 18.486V17.9247H9.77133V18.9564ZM9.77133 7.07205H14.626V6.03967H9.77133V7.07205ZM9.77133 11.0335H16.6613V10.0018H9.77133V11.0335ZM9.77133 14.9949H24.492V13.9632H9.77133V14.9949ZM29.2826 10.6973C29.2826 10.6973 29.008 10.0742 28.6253 9.70217L20.6366 1.33151C20.5528 1.22785 20.4467 1.14425 20.3261 1.08688C20.2055 1.02951 20.0736 0.99982 19.94 1H6.62333C5.72533 1 5 1.7228 5 2.61766V30.3026C5 31.1955 5.72667 31.9196 6.62333 31.9196H18.4593C18.4046 31.5841 18.3986 31.2486 18.3953 30.9098C18.2413 30.7783 18.08 30.6381 17.92 30.4747H6.45V2.43696H19.2126V10.5618C19.2126 11.0587 19.616 11.4693 20.1233 11.4693H27.8326V18.2602C28.076 18.3618 28.2973 18.4847 28.5113 18.6196L28.6546 18.7199C28.8833 18.8773 29.078 19.0414 29.2826 19.2155V10.6973ZM25.084 26.6175L26.0566 27.5403L27.7313 25.8443C27.8966 25.6768 28.0006 25.5426 28.2053 25.7519L28.8686 26.4289C29.086 26.6435 29.0753 26.769 28.87 26.969L26.4353 29.3506C26.0026 29.7732 26.078 29.7997 25.6386 29.3652L23.968 27.7091C23.876 27.6107 23.886 27.5104 23.9866 27.4121L24.756 26.6162C24.8713 26.4953 24.964 26.5033 25.084 26.6175ZM26.3746 23.3703C28.72 23.3703 30.6193 25.265 30.6193 27.6008C30.6193 29.9372 28.7186 31.8306 26.3746 31.8306C24.03 31.8306 22.13 29.9359 22.13 27.6008C22.13 25.2636 24.0306 23.3703 26.3746 23.3703Z" fill="currentColor"/>
</g>
<defs>
<clipPath id="clip0_5_441">
<rect width="36" height="36" fill="white"/>
</clipPath>
</defs>
</symbol>



<symbol id="payments" width="36" height="18" viewBox="0 0 36 18" fill="currentColor">
<g clip-path="url(#clip0_6_534)">
<path fill-rule="evenodd" clip-rule="evenodd" d="M3.53906 3.51562V17.2295H27.3809L27.3428 12.3047C26.5262 12.3076 25.7136 12.4179 24.9258 12.6328V13.0723C24.3927 13.0846 23.8861 13.307 23.5162 13.6911C23.1464 14.0752 22.9433 14.5899 22.9512 15.123H7.94531C7.94531 13.8428 7.01953 12.9375 5.89453 12.9463V7.50879C6.42812 7.49724 6.93549 7.27515 7.30596 6.89096C7.67643 6.50677 7.87993 5.99166 7.87207 5.45801H20.9561C21.0879 5.36426 21.2139 5.27344 21.3281 5.16504C22.0854 4.52097 22.9152 3.96743 23.8008 3.51562H3.53906ZM36 7.25391L30.0059 13.2012L30.0352 10.2129C26.2852 9.40137 22.0488 10.3564 19.7812 13.1924C20.2148 7.32422 25.5146 4.39453 30.0879 4.24805L30.1143 1.19824L36 7.25098V7.25391ZM18.1641 8.86523C17.8761 8.31808 17.4324 7.86862 16.8889 7.57368C16.3455 7.27874 15.7268 7.15159 15.1111 7.20829C14.4954 7.26499 13.9104 7.503 13.43 7.89223C12.9496 8.28145 12.5954 8.80441 12.4122 9.39495C12.229 9.98549 12.225 10.6171 12.4008 11.2099C12.5766 11.8027 12.9243 12.33 13.3998 12.7252C13.8753 13.1204 14.4573 13.3657 15.0723 13.4301C15.6872 13.4945 16.3074 13.375 16.8545 13.0869C17.5879 12.7007 18.1378 12.0389 18.3834 11.2472C18.629 10.4556 18.5501 9.59875 18.1641 8.86523ZM0 0V12.7764H1.63184V3.47168C1.628 3.26185 1.66798 3.05354 1.74922 2.86004C1.83046 2.66654 1.95117 2.49212 2.10365 2.34792C2.25612 2.20372 2.437 2.09291 2.63472 2.02258C2.83244 1.95224 3.04267 1.92393 3.25195 1.93945H22.4941V0H0Z" fill="currentColor"/>
</g>
<defs>
<clipPath id="clip0_6_534">
<rect width="36" height="17.2295" fill="white"/>
</clipPath>
</defs>
</symbol>


<symbol id="collections" width="36" height="30" viewBox="0 0 36 30" fill="currentColor">
<g clip-path="url(#clip0_6_540)">
<path fill-rule="evenodd" clip-rule="evenodd" d="M15.4541 11.0465C15.6885 11.437 15.8145 11.8568 15.8145 12.2883C15.8145 12.6112 15.7441 12.9224 15.6123 13.2247C15.0352 12.9488 14.4258 12.7316 13.79 12.5789C14.54 12.1415 15.1113 11.619 15.4541 11.0465ZM10.3477 17.3463L12.9551 17.3492L12.9785 20.5138L16.1396 20.5343L16.1338 23.144L12.9932 23.1205L13.0166 26.2704L10.4092 26.2675L10.3857 23.1029L7.22461 23.0824L7.23047 20.4727L10.3711 20.4961L10.3477 17.3463ZM11.5693 13.8706C15.9258 13.8706 19.4561 17.4079 19.4561 21.7731C19.4561 26.1383 15.9258 29.6757 11.5693 29.6757C7.21289 29.6757 3.68262 26.1383 3.68262 21.7731C3.68262 17.4079 7.21582 13.8706 11.5693 13.8706ZM4.13965 15.9401C1.67578 15.2356 0 13.8647 0 12.2883C0 11.8568 0.125977 11.4399 0.360352 11.0465C1.21582 12.482 3.51855 13.5858 6.36914 13.8794C5.51953 14.443 4.7666 15.1387 4.13965 15.9401ZM35.6396 17.2318C35.874 17.6252 36 18.042 36 18.4735C36 20.7662 32.458 22.6274 28.0928 22.6274C23.7275 22.6274 20.1855 20.7662 20.1855 18.4735C20.1855 18.042 20.3115 17.6252 20.5459 17.2318C21.5508 18.9197 24.5508 20.1439 28.0928 20.1439C31.6348 20.1439 34.6348 18.9197 35.6396 17.2318ZM29.2412 11.1581L29.2266 10.1307C29.458 10.1218 29.6484 10.0514 29.7949 9.91929C29.9443 9.78719 30.0234 9.62867 30.041 9.44079C30.0586 9.2265 29.9883 9.03862 29.8301 8.87423C29.6689 8.70984 29.4141 8.61296 29.0654 8.58361C28.7402 8.55425 28.4883 8.60709 28.3096 8.74213C28.1338 8.87423 28.0342 9.05917 28.0137 9.29401C27.9873 9.58757 28.0957 9.86351 28.3359 10.1189L28.1426 10.9379L25.415 10.1718L25.6494 7.46515L26.6045 7.54735L26.4375 9.47896L27.3281 9.71674C27.2344 9.47895 27.1963 9.24117 27.2168 9.00046C27.2549 8.54838 27.4541 8.17556 27.8115 7.89081C28.1689 7.60313 28.6113 7.48277 29.1357 7.52974C29.5752 7.5679 29.9561 7.72936 30.2754 8.01411C30.7148 8.4016 30.9082 8.90358 30.8555 9.52005C30.8115 10.0132 30.6475 10.4037 30.3545 10.6913C30.0645 10.982 29.6924 11.1376 29.2412 11.1581ZM28.0928 7.03363C31.6816 7.03363 34.5908 8.1785 34.5908 9.58757C34.5908 10.9996 31.6816 12.1415 28.0928 12.1415C24.5039 12.1415 21.5947 10.9966 21.5947 9.58757C21.5947 8.17556 24.5039 7.03363 28.0928 7.03363ZM28.0928 6.18525C32.458 6.18525 36 8.0464 36 10.3391C36 12.6318 32.458 14.4929 28.0928 14.4929C23.7275 14.4929 20.1855 12.6318 20.1855 10.3391C20.1855 8.0464 23.7275 6.18525 28.0928 6.18525ZM35.6689 13.1103C35.8857 13.4889 36 13.8882 36 14.3021C36 16.5948 32.458 18.4559 28.0928 18.4559C23.7275 18.4559 20.1855 16.5977 20.1855 14.3021C20.1855 13.8882 20.3027 13.486 20.5166 13.1103C21.4922 14.8217 24.5156 16.0693 28.0928 16.0693C31.6699 16.0693 34.6934 14.8217 35.6689 13.1103ZM10.7637 2.46294L10.6729 3.49333L6.79102 3.15574C7.11035 3.56378 7.33301 4.03054 7.45605 4.556L6.52148 4.47381C6.45703 4.19787 6.31641 3.88963 6.09961 3.55498C5.87988 3.21738 5.61328 2.97667 5.29395 2.82989L5.36719 1.99325L10.7637 2.46294ZM7.90723 0.845444C11.4961 0.845444 14.4053 1.99032 14.4053 3.39939C14.4053 4.80846 11.4961 5.95334 7.90723 5.95334C4.31836 5.95334 1.40918 4.80846 1.40918 3.39939C1.40918 1.99032 4.31836 0.845444 7.90723 0.845444ZM7.90723 0C12.2725 0 15.8145 1.85822 15.8145 4.15383C15.8145 6.44651 12.2725 8.30766 7.90723 8.30766C3.54199 8.30766 0 6.44651 0 4.15383C0 1.85822 3.54199 0 7.90723 0ZM15.4834 6.92207C15.7002 7.30076 15.8145 7.7 15.8145 8.11392C15.8145 10.4066 12.2725 12.2677 7.90723 12.2677C3.54199 12.2677 0 10.4066 0 8.11392C0 7.7 0.117187 7.30076 0.331055 6.92207C1.30664 8.63351 4.33008 9.88406 7.90723 9.88406C11.4844 9.88406 14.5078 8.63351 15.4834 6.92207ZM2.34668 23.7811C0.896484 23.0295 0 21.9845 0 20.8308C0 20.3699 0.143555 19.9237 0.410156 19.5098C0.779297 20.0881 1.38281 20.6077 2.16211 21.0392C2.14453 21.2799 2.13574 21.5236 2.13574 21.7702C2.13281 22.463 2.20605 23.1352 2.34668 23.7811ZM2.41113 19.4834C0.925781 18.7289 0 17.6692 0 16.4979C0 16.0576 0.131836 15.6348 0.37207 15.2385C0.884766 16.084 1.90137 16.8149 3.2373 17.3287C2.87695 18.0038 2.59863 18.726 2.41113 19.4834Z" fill="currentColor"/>
</g>
<defs>
<clipPath id="clip0_6_540">
<rect width="36" height="29.6757" fill="white"/>
</clipPath>
</defs>
</symbol>


<symbol id="conversions" width="36" height="32" viewBox="0 0 36 32" fill="currentColor">
<g clip-path="url(#clip0_6_515)">
<path fill-rule="evenodd" clip-rule="evenodd" d="M27.7764 13.7109L17.959 23.9795L12.5186 18.9258L13.0811 18.1377L17.0654 21.8203L17.1152 21.8672C17.2979 22.0333 17.539 22.1202 17.7857 22.1087C18.0323 22.0971 18.2643 21.9881 18.4307 21.8057L18.75 21.4424L20.2647 19.7695L26.9531 12.9492L27.7764 13.7109ZM28.1836 18.8262V16.8398C28.1822 16.8233 28.1822 16.8066 28.1836 16.79C28.2188 15.9111 28.8076 15.6182 29.6016 15.873C29.6448 15.888 29.6853 15.9098 29.7217 15.9375C31.7256 17.5107 33.5918 19.0811 35.5811 20.6543L35.6074 20.6807C35.749 20.7862 35.8575 20.9299 35.9203 21.0949C35.983 21.2599 35.9975 21.4394 35.9619 21.6123C35.8787 21.9034 35.6976 22.157 35.4492 22.3301L30.0645 26.6895C29.1152 27.4365 28.125 27.2959 28.125 25.9219C28.125 25.3096 28.125 24.6914 28.125 24.0791H20.4785L25.5117 18.8057L28.1836 18.8262ZM8.94435 15.6855C8.94435 16.166 8.98829 16.7578 8.94435 17.2266C8.93439 17.4059 8.9009 17.5832 8.84474 17.7539C8.7493 18.0605 8.55184 18.3251 8.28517 18.5039C8.02346 18.6702 7.71572 18.7492 7.40626 18.7295C7.19411 18.7147 6.98506 18.6703 6.78517 18.5977C6.73377 18.5801 6.68381 18.5585 6.63576 18.5332C6.58912 18.5066 6.54412 18.4773 6.50099 18.4453C5.53712 17.6895 4.5381 16.875 3.53615 16.0635C2.60451 15.3047 1.66993 14.5459 0.629896 13.7197L0.571302 13.667C0.354443 13.4874 0.185363 13.2569 0.0791146 12.9961L0.0615365 12.9375C-0.00999947 12.7027 -0.0190873 12.4533 0.0351693 12.2139C0.0892035 11.9952 0.189062 11.7905 0.328138 11.6133C0.453827 11.4475 0.600568 11.2988 0.764661 11.1709C2.57521 9.80859 4.34181 8.2207 6.15236 6.81445C6.54929 6.47321 7.04769 6.2724 7.57033 6.24316C7.77226 6.24109 7.97222 6.28308 8.15626 6.36621C8.34417 6.45223 8.50887 6.58179 8.63673 6.74414C8.89901 7.11341 9.02907 7.56035 9.00587 8.0127V9.29004H16.2979L15.2168 10.4209H8.42579C8.35168 10.4201 8.27844 10.4047 8.21029 10.3756C8.14214 10.3464 8.08043 10.3041 8.02871 10.251C7.97698 10.1979 7.93625 10.1351 7.90887 10.0662C7.88149 9.99734 7.86799 9.92372 7.86915 9.84961C7.86915 9.42773 7.86915 9 7.86915 8.57812V8.0127C7.88829 7.81339 7.84312 7.61318 7.74025 7.44141C7.72363 7.41974 7.70268 7.40178 7.67872 7.38867C7.64418 7.37544 7.60728 7.36945 7.57033 7.37109C7.30007 7.40178 7.04661 7.51773 6.84669 7.70215L1.46486 12.0586C1.37886 12.1231 1.30199 12.199 1.23634 12.2842C1.19509 12.3349 1.16513 12.3938 1.14845 12.457C1.13798 12.5013 1.13798 12.5475 1.14845 12.5918V12.6182C1.18863 12.7085 1.24873 12.7887 1.32423 12.8525C2.27345 13.5967 3.26076 14.3965 4.25392 15.1963C5.24708 15.9961 6.13771 16.7285 7.18361 17.54C7.273 17.5684 7.36544 17.5861 7.459 17.5928C7.53532 17.6002 7.61206 17.5838 7.67872 17.5459C7.73322 17.5065 7.77253 17.4497 7.79005 17.3848C7.8126 17.3115 7.82636 17.2357 7.83107 17.1592V15.1084C7.83329 14.9632 7.89154 14.8246 7.99364 14.7214C8.09575 14.6182 8.2338 14.5585 8.37892 14.5547H11.2647L10.2305 15.6387L10.1895 15.6855H8.94435ZM27.5068 11.0537L17.6924 21.3223L12.252 16.2686L22.0694 6L27.5068 11.0537ZM21.3106 13.2217C21.4235 13.5357 21.4409 13.8762 21.3603 14.2001C21.2798 14.524 21.105 14.8167 20.8581 15.0413C20.6112 15.2659 20.3033 15.4122 19.9732 15.4617C19.6432 15.5113 19.3058 15.4618 19.0039 15.3197C18.7019 15.1775 18.4489 14.949 18.2768 14.663C18.1047 14.377 18.0213 14.0465 18.0371 13.7131C18.0529 13.3797 18.1672 13.0585 18.3655 12.7901C18.5639 12.5217 18.8373 12.3181 19.1514 12.2051C19.3599 12.1301 19.5812 12.0968 19.8025 12.1073C20.0239 12.1178 20.241 12.1718 20.4415 12.2662C20.642 12.3606 20.822 12.4936 20.9711 12.6575C21.1202 12.8214 21.2355 13.0132 21.3106 13.2217ZM25.0547 12.0498L18.4951 18.7939C18.2816 18.5967 17.9986 18.4921 17.7081 18.5031C17.4176 18.5141 17.1433 18.6397 16.9453 18.8525L14.7949 16.8574C14.9922 16.6439 15.0968 16.3609 15.0858 16.0704C15.0748 15.7799 14.9492 15.5056 14.7363 15.3076L21.2959 8.54297C21.4016 8.64189 21.5258 8.71889 21.6614 8.76953C21.797 8.82017 21.9413 8.84344 22.086 8.83799C22.2306 8.83254 22.3727 8.79848 22.5042 8.73779C22.6356 8.6771 22.7536 8.59097 22.8516 8.48437L25.0049 10.4824C24.8071 10.6961 24.7019 10.9793 24.7123 11.2703C24.7228 11.5612 24.848 11.8362 25.0606 12.0352L25.0547 12.0498Z" fill="currentColor"/>
</g>
<defs>
<clipPath id="clip0_6_515">
<rect width="36" height="21.1377" fill="white" transform="translate(0 6)"/>
</clipPath>
</defs>
</symbol>

<symbol id="global-account" width="36" height="33" viewBox="0 0 36 33" fill="currentColor">
<g clip-path="url(#clip0_6_536)">
<path fill-rule="evenodd" clip-rule="evenodd" d="M23.9619 29.7599C24.0818 29.9537 24.1466 30.1765 24.1494 30.4044C24.1494 31.5938 22.3095 32.5577 20.0478 32.5577C17.7861 32.5577 15.9463 31.5938 15.9463 30.4044C15.9499 30.1766 16.0147 29.954 16.1338 29.7599C16.6582 30.6388 18.2138 31.2716 20.0537 31.2716C21.8935 31.2716 23.4551 30.6358 23.9765 29.7599H23.9619ZM25.7461 16.2218L25.3623 14.0626L24.4834 13.4327L22.3916 13.0577C22.4619 13.172 22.5351 13.2833 22.6084 13.3946C22.9827 13.9003 23.2635 14.4688 23.4375 15.0733C23.625 15.9522 23.291 16.7052 21.8115 17.2384C21.8525 17.2647 21.8965 17.2911 21.9375 17.3233C22.5234 17.7657 22.6523 18.4161 21.3955 20.0597L21.1201 20.42C20.763 20.382 20.404 20.3635 20.0449 20.3644C19.9248 20.3644 19.8017 20.3644 19.6787 20.3644C19.9189 20.0362 20.1738 19.6905 20.4492 19.3331C21.1084 18.4542 21.2344 18.2784 21.2138 18.2638C21.137 18.2173 21.0555 18.179 20.9707 18.1495C20.5635 17.9825 20.1181 17.7979 19.9072 17.1974C19.8957 17.1677 19.8859 17.1374 19.8779 17.1065C19.8612 17.0305 19.8598 16.9519 19.8738 16.8753C19.8879 16.7988 19.917 16.7258 19.9595 16.6606C20.0021 16.5954 20.0572 16.5393 20.1217 16.4957C20.1861 16.452 20.2586 16.4217 20.3349 16.4063C21.9521 16.0665 22.3506 15.7091 22.2685 15.3106C22.1106 14.8625 21.8843 14.4415 21.5976 14.0626C21.265 13.5824 20.9795 13.0713 20.7451 12.5362C20.6903 12.4374 20.6653 12.3248 20.6731 12.212C20.6809 12.0993 20.7211 11.9912 20.7889 11.9007C20.8567 11.8103 20.9492 11.7415 21.0553 11.7024C21.1614 11.6634 21.2765 11.6559 21.3867 11.6808L24.8027 12.3048C24.8892 12.3196 24.9713 12.3536 25.0429 12.4044L26.2148 13.2276C26.2914 13.2702 26.3575 13.3294 26.4082 13.4009C26.4589 13.4724 26.493 13.5543 26.5078 13.6407L26.8711 15.671C26.6279 15.7706 26.3965 15.879 26.1797 15.9933C26.0361 16.0694 25.8867 16.1485 25.7607 16.2306L25.7461 16.2218ZM13.875 23.0714V22.9835C13.8733 22.8183 13.8467 22.6544 13.7959 22.4972C13.7276 22.288 13.6372 22.0867 13.5263 21.8966C13.374 21.6329 13.2627 21.419 13.1836 21.2579C13.0917 21.0854 13.0359 20.896 13.0195 20.7013C13.0195 19.7257 12.6855 19.5118 12.2226 19.5118C11.9154 19.5215 11.6091 19.5509 11.3056 19.5997C10.8946 19.6648 10.4796 19.702 10.0635 19.711C9.71257 19.6937 9.38194 19.5415 9.1406 19.2862C8.87075 19.0149 8.63735 18.7096 8.44627 18.378C8.22947 18.0206 8.06541 17.7335 7.95408 17.5167C7.83085 17.3077 7.75299 17.0751 7.72556 16.8341V16.3741C7.70798 14.7218 7.69334 13.1515 9.29002 12.003C9.96091 11.0626 10.5469 10.4532 11.2646 10.0665C11.9824 9.67979 12.8408 9.51865 13.9629 9.51865C14.1183 9.51865 14.2673 9.58039 14.3772 9.69027C14.4871 9.80015 14.5488 9.94919 14.5488 10.1046V10.9483L15.2636 11.2618V11.2149C15.2786 11.1377 15.3089 11.0643 15.3528 10.9991C15.3967 10.9339 15.4532 10.8781 15.5191 10.8352C15.585 10.7923 15.6588 10.7631 15.7362 10.7493C15.8137 10.7355 15.8931 10.7374 15.9697 10.755C16.1744 10.7984 16.376 10.8552 16.5732 10.9249C16.7511 10.9892 16.922 11.0717 17.083 11.171C17.1992 11.2345 17.3265 11.2753 17.458 11.2911C17.6372 11.3233 17.8207 11.3233 18 11.2911C18.0617 11.285 18.1211 11.2639 18.1728 11.2296V11.2091C18.1875 11.1212 18.1992 11.0304 18.2109 10.9396L17.5049 11.004C17.384 11.015 17.2628 10.9882 17.1578 10.9273C17.0529 10.8665 16.9694 10.7745 16.9189 10.6642C16.6875 10.172 16.1924 9.92002 15.5742 9.60361C14.7339 9.21144 13.9599 8.69053 13.2803 8.05967C10.4502 9.08213 9.54197 9.22861 9.31345 8.5958C9.17869 8.2208 9.37205 7.9249 9.62986 7.52353C9.88767 7.12217 10.1982 6.64463 10.1982 6.16123C10.1965 6.03775 10.2338 5.91688 10.3048 5.81586C10.3758 5.71485 10.4769 5.63885 10.5937 5.59873L12.9931 4.50303C12.7353 4.45908 12.4072 4.40049 12.1494 3.11143C12.1212 2.98674 12.1346 2.85627 12.1875 2.73991C12.2404 2.62354 12.3299 2.52767 12.4424 2.46689C12.6731 2.34003 12.897 2.20117 13.1133 2.05088C13.3681 1.87803 13.6728 1.65537 14.0303 1.38291L14.0625 1.37705C12.8531 1.56347 11.672 1.90108 10.5469 2.38193C9.62506 2.7736 8.74225 3.2513 7.91013 3.80869C7.09939 4.35044 6.34468 4.97168 5.6572 5.66318C4.96804 6.34909 4.34879 7.10181 3.80857 7.91025C3.2532 8.7426 2.77747 9.6254 2.38767 10.547V10.5733C1.99643 11.4914 1.70188 12.4478 1.50877 13.4269C1.11112 15.4584 1.11112 17.5477 1.50877 19.5792C1.50877 19.6319 1.52927 19.6876 1.54099 19.7403L4.29783 21.0587C4.39632 21.1049 4.48 21.1776 4.5395 21.2687C4.59901 21.3597 4.63199 21.4656 4.63474 21.5743C4.64046 22.2512 4.50475 22.9217 4.23631 23.5431C4.04567 23.9994 3.92802 24.4828 3.88767 24.9757C3.88459 25.0316 3.87375 25.0868 3.85545 25.1397C4.38975 25.9273 4.99797 26.6621 5.67185 27.3341C6.35485 28.0238 7.10462 28.644 7.91013 29.1856C8.74284 29.7404 9.62559 30.2161 10.5469 30.6065H10.5732C11.4833 30.9948 12.4306 31.2893 13.4004 31.4854C13.5368 31.9651 13.7614 32.4151 14.0625 32.8126C13.7695 32.7716 13.4765 32.7188 13.1836 32.6603C12.1256 32.4483 11.092 32.1292 10.0986 31.7081H10.0664C9.08322 31.2884 8.1416 30.7773 7.25388 30.1817C6.37919 29.5968 5.56465 28.9265 4.82224 28.1808C4.07651 27.4384 3.40624 26.6238 2.82127 25.7491C2.22676 24.8607 1.71579 23.9192 1.2949 22.9366C0.862958 21.9302 0.536982 20.8816 0.322243 19.8077C-0.107089 17.6206 -0.107089 15.3708 0.322243 13.1837C0.533703 12.1243 0.853752 11.0896 1.27732 10.0958C1.27611 10.0851 1.27611 10.0743 1.27732 10.0636C1.69822 9.08097 2.20919 8.13946 2.80369 7.25107C3.38956 6.37705 4.05977 5.5626 4.80466 4.81943C5.54708 4.0737 6.36161 3.40343 7.23631 2.81846C8.12402 2.22285 9.06564 1.71182 10.0488 1.29209C12.0864 0.425433 14.28 -0.0142836 16.4941 9.755e-05C17.6056 -0.00193615 18.7145 0.106012 19.8047 0.322363C20.8641 0.533601 21.8989 0.853657 22.8926 1.27744H22.9248C23.9074 1.69834 24.8489 2.20931 25.7373 2.80381C26.6113 3.38969 27.4258 4.05989 28.1689 4.80478C28.9138 5.54795 29.584 6.3624 30.1699 7.23643C30.7644 8.12481 31.2754 9.06633 31.6963 10.0489C32.1274 11.0574 32.4524 12.108 32.666 13.1837C32.7899 13.8041 32.8779 14.4311 32.9297 15.0616C32.2803 14.9503 31.6227 14.8944 30.9638 14.8946H30.7939C30.8307 14.6917 30.8796 14.4911 30.9404 14.294C31.0053 14.0743 31.1106 13.8687 31.251 13.6876C31.1627 13.1224 31.0414 12.5628 30.8877 12.0118C30.701 11.3505 30.465 10.7042 30.1816 10.0782C29.6255 8.83583 28.9031 7.6748 28.0342 6.62705C27.6053 6.11128 27.1402 5.62666 26.6426 5.17686C26.1398 4.72181 25.6063 4.30187 25.0459 3.92002C24.4843 3.53465 23.897 3.18814 23.2881 2.88291C22.7277 2.60133 22.1504 2.35476 21.5595 2.14463C19.3359 2.66025 18.706 2.34385 17.997 2.01572C17.507 1.76004 16.9586 1.63683 16.4062 1.6583H15.8906C15.777 1.68228 15.6687 1.72697 15.5713 1.79014C15.2823 1.95217 15.007 2.13734 14.748 2.34385C14.3965 2.61338 14.0713 2.84775 13.7754 3.04697C13.6015 3.16416 13.4433 3.26182 13.3008 3.33994C13.5937 3.40439 13.8017 3.58311 13.9511 4.91025C13.9664 5.03471 13.9414 5.16079 13.8797 5.26995C13.818 5.37911 13.7229 5.4656 13.6084 5.5167L11.3525 6.54502C11.2234 7.12627 10.9761 7.67474 10.626 8.15635C10.6215 8.16518 10.6143 8.17236 10.6054 8.17686C11.4087 7.61074 12.2874 7.16007 13.2158 6.83799C13.3273 6.788 13.4516 6.77412 13.5714 6.79828C13.6912 6.82245 13.8004 6.88345 13.8838 6.97275C14.5309 7.63092 15.2923 8.16598 16.1308 8.55186C16.8222 8.90342 17.3935 9.19346 17.8008 9.79404L18.7646 9.70615C18.7997 9.70326 18.835 9.70326 18.8701 9.70615C19.0255 9.70615 19.1745 9.76789 19.2844 9.87777C19.3943 9.98765 19.456 10.1367 19.456 10.2921C19.456 10.4767 19.456 10.6671 19.4297 10.8604C19.4191 11.0499 19.3985 11.2386 19.3681 11.4259C19.3696 11.4336 19.3696 11.4416 19.3681 11.4493C19.343 11.6052 19.2851 11.754 19.1982 11.8858C19.0895 12.0429 18.9497 12.176 18.7874 12.2768C18.6251 12.3776 18.4439 12.4439 18.2549 12.4718C17.9315 12.5318 17.5998 12.5318 17.2763 12.4718C16.9893 12.4279 16.7137 12.3284 16.4648 12.1788C16.417 12.1489 16.3671 12.1224 16.3154 12.0997L16.2861 12.2286C16.2771 12.2675 16.2653 12.3057 16.251 12.3429C16.2207 12.4155 16.1762 12.4814 16.1199 12.5364C16.0637 12.5915 15.997 12.6347 15.9237 12.6634C15.8504 12.6921 15.7721 12.7058 15.6934 12.7035C15.6148 12.7013 15.5373 12.6833 15.4658 12.6505L13.7695 11.9122C13.6522 11.8726 13.5504 11.7968 13.4788 11.6957C13.4072 11.5947 13.3695 11.4735 13.3711 11.3497V10.7315C12.8352 10.7426 12.3086 10.8737 11.8301 11.1153C11.2793 11.4083 10.7959 11.9269 10.2246 12.7472C10.1809 12.8171 10.123 12.877 10.0547 12.9229C8.88279 13.7228 8.9033 15.006 8.91502 16.3683C8.91502 16.6407 8.91502 16.7521 8.91502 16.8341C8.91502 16.8634 8.94724 16.8546 9.00877 16.9776C9.10838 17.171 9.26072 17.4347 9.45994 17.7657C9.59779 18.0044 9.76621 18.224 9.96091 18.419L10.0693 18.5187C10.4324 18.51 10.7944 18.4777 11.1533 18.422C11.5091 18.3648 11.8683 18.3315 12.2285 18.3224C13.3857 18.3224 14.2207 18.7501 14.2207 20.7013C14.2207 20.7364 14.2353 20.6808 14.2676 20.7511C14.3349 20.8888 14.4345 21.0763 14.5605 21.3106C14.6824 21.5223 14.7863 21.7438 14.8711 21.9728C14.4837 22.2836 14.1476 22.6533 13.875 23.0685V23.0714ZM2.59861 22.4854C2.72752 22.7784 2.87107 23.0714 3.02341 23.3644C3.04978 23.2882 3.07615 23.212 3.10545 23.1388C3.2582 22.7627 3.36351 22.369 3.41892 21.9669L2.16795 21.381C2.29392 21.7501 2.43748 22.1222 2.59861 22.4913V22.4854ZM27.2461 15.5274L28.4502 13.3683C28.4968 13.2551 28.5777 13.1593 28.6815 13.0945C28.7854 13.0296 28.9069 12.9989 29.0291 13.0067C29.1512 13.0144 29.2679 13.0603 29.3627 13.1377C29.4575 13.2152 29.5257 13.3204 29.5576 13.4386L30.0234 14.9415C29.0759 15.014 28.1421 15.211 27.2461 15.5274ZM10.4267 8.20322C10.4502 8.26768 10.5 8.26182 10.5967 8.20322H10.4267ZM35.7685 29.004C35.9169 29.2403 35.997 29.5131 36 29.7921C36 31.2569 33.7441 32.4288 30.9638 32.4288C28.1836 32.4288 25.9306 31.2569 25.9306 29.7921C25.9348 29.5137 26.0137 29.2415 26.1592 29.004C26.8008 30.0763 28.7109 30.8526 30.9638 30.8526C33.2168 30.8526 35.1328 30.0763 35.7685 29.004ZM35.7685 25.8106C35.9166 26.0482 35.9967 26.3218 36 26.6017C36 28.0665 33.7441 29.2384 30.9638 29.2384C28.1836 29.2384 25.9306 28.0665 25.9306 26.6017C25.9351 26.3224 26.014 26.0493 26.1592 25.8106C26.8008 26.8829 28.7109 27.6622 30.9638 27.6622C33.2168 27.6622 35.1328 26.8829 35.7685 25.8106ZM32.7832 19.1544L32.7246 19.8077L30.2549 19.5938C30.4571 19.8531 30.601 20.1528 30.6767 20.4728L30.0908 20.42C30.0342 20.2111 29.9431 20.013 29.8213 19.8341C29.6941 19.6366 29.5117 19.4808 29.2969 19.3858L29.3437 18.8556L32.7803 19.1485L32.7832 19.1544ZM30.9638 18.129C33.249 18.129 35.1035 18.8556 35.1035 19.7521C35.1035 20.6485 33.249 21.3868 30.9638 21.3868C28.6787 21.3868 26.8271 20.6573 26.8271 19.7638C26.8271 18.8702 28.6816 18.1407 30.9638 18.1407V18.129ZM30.9638 17.5899C33.7441 17.5899 36 18.7618 36 20.2267C36 21.6915 33.7441 22.8634 30.9638 22.8634C28.1836 22.8634 25.9306 21.6915 25.9306 20.2267C25.9306 18.7618 28.1865 17.5899 30.9638 17.5899ZM35.7861 22.7052C35.923 22.9348 35.9968 23.1966 36 23.464C36 24.9288 33.7441 26.1007 30.9638 26.1007C28.1836 26.1007 25.9306 24.9288 25.9306 23.464C25.932 23.1963 26.0059 22.9341 26.1445 22.7052C26.7627 23.7921 28.6875 24.589 30.9638 24.589C33.2402 24.589 35.1562 23.7921 35.7861 22.7052ZM21.5244 24.3341L21.4775 24.8673L19.459 24.6915C19.626 24.9055 19.744 25.1535 19.8047 25.4181L19.3359 25.3741C19.2838 25.2053 19.2046 25.046 19.1015 24.9024C19.0015 24.7393 18.8558 24.6089 18.6826 24.5274L18.7207 24.0938L21.5244 24.337V24.3341ZM20.039 23.4962C21.9053 23.4962 23.417 24.0821 23.417 24.8204C23.417 25.5587 21.9053 26.1446 20.039 26.1446C18.1728 26.1446 16.664 25.5587 16.664 24.8204C16.664 24.0821 18.164 23.4962 20.039 23.4962ZM20.039 23.0567C22.3095 23.0567 24.1406 24.0235 24.1406 25.2101C24.1406 26.3966 22.3008 27.3663 20.039 27.3663C17.7773 27.3663 15.9375 26.3995 15.9375 25.2101C15.9375 24.0206 17.7773 23.0567 20.039 23.0567ZM23.9765 27.2462C24.0871 27.4337 24.1467 27.6468 24.1494 27.8644C24.1494 29.0538 22.3095 30.0206 20.0478 30.0206C17.7861 30.0206 15.9463 29.0538 15.9463 27.8644C15.9454 27.647 16.0031 27.4335 16.1133 27.2462C16.6201 28.1251 18.1904 28.7843 20.0478 28.7843C21.9053 28.7843 23.4697 28.1251 23.9765 27.2462Z" fill="#F4770B"/>
</g>
<defs>
<clipPath id="clip0_6_536">
<rect width="36" height="32.8184" fill="white"/>
</clipPath>
</defs>
</symbol>


<symbol id="support" viewBox="0 0 84 91" fill="currentColor">
<path d="M42.51 80.2679C42.0384 81.0849 41.3103 81.7234 40.4388 82.0844C39.5673 82.4454 38.6009 82.5087 37.6898 82.2645C36.7786 82.0203 35.9734 81.4822 35.3992 80.7337C34.8251 79.9853 34.5139 79.0682 34.514 78.1249C34.5139 77.1815 34.8251 76.2645 35.3992 75.5161C35.9734 74.7676 36.7786 74.2295 37.6898 73.9853C38.6009 73.7411 39.5673 73.8044 40.4388 74.1654C41.3103 74.5264 42.0384 75.1649 42.51 75.9819H62.37C63.7075 75.9826 65.0392 75.8074 66.331 75.4609C69.0284 70.9935 70.5922 65.9342 70.886 60.7239C71.9934 60.4467 73.0339 59.9503 73.946 59.2639C73.3874 58.5244 73.0854 57.6227 73.086 56.6959V48.5529L70.942 50.2669V43.8379L51.657 22.8379L6.65703 43.8379V50.2669L2.37103 46.8379V46.7429C0.987876 48.3064 0.225493 50.3224 0.228034 52.4099C0.228339 54.3199 0.866419 56.1752 2.04105 57.6813C3.21569 59.1875 4.85961 60.2583 6.71203 60.7239C7.68503 77.6269 21.647 90.9809 38.799 90.9809C43.3272 90.9899 47.8059 90.0391 51.9399 88.1914C56.074 86.3436 59.7695 83.6407 62.783 80.2609C62.645 80.2639 62.508 80.2659 62.37 80.2659H42.51V80.2679ZM53.799 48.1249C54.3618 48.1248 54.9191 48.2356 55.4391 48.4509C55.959 48.6662 56.4315 48.9818 56.8295 49.3797C57.2275 49.7776 57.5432 50.25 57.7586 50.7699C57.9741 51.2899 58.085 51.8471 58.085 52.4099C58.0851 52.9727 57.9743 53.53 57.759 54.0499C57.5437 54.5699 57.2281 55.0424 56.8302 55.4403C56.4323 55.8383 55.9599 56.1541 55.44 56.3695C54.9201 56.5849 54.3628 56.6958 53.8 56.6959C52.6635 56.696 51.5734 56.2446 50.7696 55.441C49.9658 54.6375 49.5142 53.5475 49.514 52.4109C49.5139 51.2743 49.9653 50.1842 50.7689 49.3804C51.5725 48.5767 52.6625 48.125 53.799 48.1249ZM23.799 56.6969C22.6623 56.6969 21.5722 56.2453 20.7684 55.4416C19.9646 54.6378 19.513 53.5476 19.513 52.4109C19.513 51.2742 19.9646 50.184 20.7684 49.3802C21.5722 48.5765 22.6623 48.1249 23.799 48.1249C24.9358 48.1249 26.0259 48.5765 26.8297 49.3802C27.6335 50.184 28.085 51.2742 28.085 52.4109C28.085 53.5476 27.6335 54.6378 26.8297 55.4416C26.0259 56.2453 24.9358 56.6969 23.799 56.6969ZM77.37 60.9819C77.37 67.9639 72.731 73.7469 66.331 75.4609C65.671 76.4489 63.962 78.9309 62.783 80.2609C67.8321 80.1747 72.644 78.1039 76.1764 74.4952C79.7089 70.8866 81.6775 66.0317 81.656 60.9819V60.4019C81.0055 60.7821 80.2655 60.9823 79.512 60.9819H77.37Z" fill="white"/>
<path d="M43.0849 5.26793C59.5849 5.26793 73.0849 18.7679 73.0849 35.2679V48.1249C73.0881 46.9894 73.5405 45.9012 74.3434 45.0981C75.1463 44.2951 76.2343 43.8424 77.3699 43.8389V35.2679C77.3699 16.4109 61.9409 0.981934 43.0849 0.981934H28.0849C26.7989 0.981934 25.9409 1.83893 25.9409 3.12493C25.9409 4.02893 26.3659 4.71993 27.0649 5.05093C27.3599 5.19093 27.7029 5.26793 28.0849 5.26793H43.0849Z" fill="white"/>
<path d="M79.513 43.8391H77.37C76.2344 43.8425 75.1463 44.2952 74.3434 45.0983C73.5406 45.9014 73.0881 46.9895 73.085 48.1251V56.6961C73.085 57.6571 73.405 58.5481 73.945 59.2641C74.3435 59.7964 74.8605 60.2286 75.4549 60.5266C76.0494 60.8246 76.705 60.9802 77.37 60.9811H79.513C80.293 60.9811 81.025 60.7691 81.657 60.4011C82.3071 60.0248 82.8472 59.4845 83.2232 58.8342C83.5993 58.1839 83.7981 57.4463 83.8 56.6951V48.1241C83.796 46.9885 83.343 45.9006 82.5398 45.0978C81.7367 44.295 80.6485 43.8425 79.513 43.8391Z" fill="white"/>
  </symbol>
  </defs>
</svg>